<?xml version="1.0" standalone="no"?>
<!DOCTYPE svg PUBLIC "-//W3C//DTD SVG 20010904//EN"
 "http://www.w3.org/TR/2001/REC-SVG-20010904/DTD/svg10.dtd">
<svg version="1.0" xmlns="http://www.w3.org/2000/svg"
 width="700.000000pt" height="700.000000pt" viewBox="0 0 700.000000 700.000000"
 preserveAspectRatio="xMidYMid meet">
<metadata>
Created by potrace 1.14, written by Peter Selinger 2001-2017
</metadata>
<g transform="translate(0.000000,700.000000) scale(0.100000,-0.100000)"
fill="#000000" stroke="none">
<path d="M3816 5583 c-7 -24 -130 -484 -256 -958 -55 -209 -107 -402 -115
-430 -8 -27 -40 -144 -70 -260 -31 -115 -70 -259 -86 -320 -17 -60 -32 -118
-34 -127 -3 -15 -89 -336 -136 -508 -7 -25 -13 -49 -15 -55 -1 -5 -12 -46 -24
-90 -79 -293 -212 -793 -215 -805 -2 -8 -33 -125 -69 -259 -37 -134 -64 -246
-62 -248 2 -3 35 -13 73 -23 37 -10 129 -34 203 -55 74 -20 143 -38 152 -40
13 -3 20 6 27 33 6 20 42 156 81 302 39 146 84 315 101 375 16 61 42 160 59
220 17 61 32 119 35 130 2 11 28 106 56 210 28 105 65 246 84 315 18 69 81
303 139 520 59 217 109 403 111 413 4 16 64 241 140 522 30 109 205 764 210
785 2 8 18 66 35 129 17 62 29 116 26 118 -4 4 -428 121 -443 123 -1 0 -4 -8
-7 -17z"/>
<path d="M1863 3964 l-463 -464 466 -466 466 -466 30 29 c25 24 286 286 296
298 2 2 -132 139 -297 304 l-301 301 300 300 c165 165 300 301 300 303 0 6
-320 322 -328 324 -4 1 -215 -208 -469 -463z"/>
<path d="M4505 4270 c-88 -88 -159 -164 -157 -170 1 -6 135 -143 297 -305
l295 -295 -295 -295 c-162 -162 -296 -299 -297 -304 -2 -5 69 -82 156 -170
136 -138 161 -159 175 -148 8 6 219 216 468 465 l453 452 -465 465 c-256 256
-466 465 -467 465 -2 0 -75 -72 -163 -160z"/>
</g>
</svg>
