<svg width="40" height="40" viewBox="0 0 40 40" fill="none" xmlns="http://www.w3.org/2000/svg">
<path d="M38.9819 18.2431L21.7578 1.02C20.7666 0.0281238 19.1578 0.0281238 18.165 1.02L14.5891 4.59687L19.126 9.13375C20.1807 8.77781 21.3894 9.01656 22.2297 9.85687C23.0744 10.7025 23.3116 11.9216 22.9463 12.9797L27.3188 17.3528C28.3766 16.9881 29.5975 17.2237 30.4419 18.07C31.6232 19.2503 31.6232 21.1637 30.4419 22.3447C29.2607 23.5259 27.3478 23.5259 26.166 22.3447C25.2778 21.4559 25.0582 20.1512 25.5082 19.0569L21.4307 14.9791L21.43 25.7106C21.7182 25.8528 21.9897 26.0428 22.2297 26.2819C23.4107 27.4622 23.4107 29.375 22.2297 30.5578C21.0488 31.7381 19.1347 31.7381 17.955 30.5578C16.7744 29.3753 16.6775 27.4625 17.8578 26.2819C18.1497 25.9903 18.4375 25.77 18.75 25.6225V14.7916C18.4375 14.6441 18.15 14.4253 17.8575 14.1319C16.9635 13.2381 16.7963 11.9256 17.255 10.8269L12.8072 6.35406L1.00909 18.1634C0.0169019 19.1562 0.0231519 20.765 1.01534 21.7572L18.2422 38.9803C19.2338 39.9722 20.8438 39.9722 21.8369 38.9803L38.9807 21.8372C39.9728 20.8447 39.9738 19.235 38.9819 18.2431Z" fill="#F34F29"/>
</svg>
