<svg width="40" height="40" viewBox="0 0 40 40" fill="none" xmlns="http://www.w3.org/2000/svg">
<g clip-path="url(#clip0)">
<g clip-path="url(#clip1)">
<path d="M32.594 12.7522V27.1557L20.3548 34.3968L20.2441 34.4975V39.8807L20.3548 39.985L37.5919 30.0285V9.95804L37.4291 9.91818L32.5695 12.635L32.594 12.7522Z" fill="#2F406A"/>
<path d="M8.07665 27.2736L20.355 34.3967V39.9849L3 29.989V9.99738L3.17809 9.97049L8.02354 12.7876L8.07665 12.9489V27.2736Z" fill="#2379BD"/>
<path d="M8.07665 12.9489L3 9.99737L20.3157 0.00149536L37.592 9.95805L32.5941 12.7522L20.3157 5.74715L8.07665 12.9489Z" fill="#03AFEF"/>
<path d="M20.1447 25.6263L20.0117 25.4906V20.0821L20.1447 20.0135L20.177 19.8801L24.8138 17.1754L24.9557 17.2071V22.7799L20.1447 25.6263Z" fill="#2F406A"/>
<path d="M15.2534 22.9535V17.1671L15.3879 17.1605L20.1046 19.9054L20.1447 20.0135V25.6262L15.2534 22.9535Z" fill="#2379BD"/>
<path d="M20.0644 14.3206L15.2534 17.1671L20.1447 20.0135L24.9557 17.2071L20.0644 14.3206Z" fill="#03AFEF"/>
<path d="M14.1572 29.1546L14.0244 29.0189V23.6102L14.1572 23.5417L14.1897 23.4083L18.8264 20.7035L18.9682 20.7352V26.308L14.1572 29.1546Z" fill="#2F406A"/>
<path d="M9.2666 26.4817V20.6951L9.40091 20.6885L14.1176 23.4335L14.1577 23.5416V29.1544L9.2666 26.4817Z" fill="#2379BD"/>
<path d="M14.0776 17.8487L9.2666 20.6951L14.1577 23.5416L18.9687 20.7352L14.0776 17.8487Z" fill="#03AFEF"/>
<path d="M26.5592 29.2881L26.4263 29.1524V23.7438L26.5592 23.6753L26.5915 23.5419L31.2283 20.8371L31.3702 20.8688V26.4415L26.5592 29.2881Z" fill="#2F406A"/>
<path d="M21.6675 26.6153V20.8286L21.8019 20.822L26.5188 23.5671L26.5589 23.6752V29.2881L21.6675 26.6153Z" fill="#2379BD"/>
<path d="M26.4786 17.9823L21.6675 20.8287L26.5588 23.6753L31.3699 20.8689L26.4786 17.9823Z" fill="#03AFEF"/>
<path d="M20.5723 32.8163L20.4395 32.6807V27.2719L20.5723 27.2034L20.6047 27.0699L25.2416 24.3652L25.3833 24.397V29.9697L20.5723 32.8163Z" fill="#2F406A"/>
<path d="M15.6807 30.1435V24.3568L15.815 24.3502L20.5318 27.0952L20.5718 27.2034V32.8163L15.6807 30.1435Z" fill="#2379BD"/>
<path d="M20.4917 21.5103L15.6807 24.3568L20.5718 27.2033L25.3828 24.3969L20.4917 21.5103Z" fill="#03AFEF"/>
<path d="M20.1447 17.9556L20.0117 17.8198V12.4113L20.1447 12.3428L20.177 12.2093L24.8138 9.50458L24.9557 9.53633V15.1091L20.1447 17.9556Z" fill="#2F406A"/>
<path d="M15.2534 15.2828V9.4962L15.3879 9.48958L20.1046 12.2345L20.1447 12.3428V17.9556L15.2534 15.2828Z" fill="#2379BD"/>
<path d="M20.0644 6.64964L15.2534 9.49619L20.1447 12.3427L24.9557 9.53632L20.0644 6.64964Z" fill="#03AFEF"/>
<path d="M14.1572 21.4834L14.0244 21.3478V15.9393L14.1572 15.8707L14.1897 15.7373L18.8264 13.0325L18.9682 13.0643V18.637L14.1572 21.4834Z" fill="#2F406A"/>
<path d="M9.2666 18.8107V13.0243L9.40091 13.0177L14.1176 15.7626L14.1577 15.8707V21.4835L9.2666 18.8107Z" fill="#2379BD"/>
<path d="M14.0776 10.1778L9.2666 13.0243L14.1577 15.8707L18.9687 13.0643L14.0776 10.1778Z" fill="#03AFEF"/>
<path d="M26.5592 21.6172L26.4263 21.4815V16.073L26.5592 16.0043L26.5915 15.871L31.2283 13.1662L31.3702 13.1979V18.7708L26.5592 21.6172Z" fill="#2F406A"/>
<path d="M21.6675 18.9444V13.1579L21.8019 13.1513L26.5188 15.8963L26.5589 16.0044V21.6172L21.6675 18.9444Z" fill="#2379BD"/>
<path d="M26.4786 10.3114L21.6675 13.1579L26.5588 16.0044L31.3699 13.1979L26.4786 10.3114Z" fill="#03AFEF"/>
<path d="M20.5723 25.1454L20.4395 25.0097V19.601L20.5723 19.5325L20.6047 19.3991L25.2416 16.6943L25.3833 16.7261V22.2988L20.5723 25.1454Z" fill="#2F406A"/>
<path d="M15.6807 22.4725V16.6859L15.815 16.6793L20.5318 19.4244L20.5718 19.5325V25.1453L15.6807 22.4725Z" fill="#2379BD"/>
<path d="M20.4917 13.8394L15.6807 16.6859L20.5718 19.5325L25.3828 16.7261L20.4917 13.8394Z" fill="#03AFEF"/>
</g>
</g>
<defs>
<clipPath id="clip0">
<rect width="40" height="40" fill="white"/>
</clipPath>
<clipPath id="clip1">
<rect width="34.592" height="40" fill="white" transform="translate(3)"/>
</clipPath>
</defs>
</svg>
