<svg width="40" height="40" viewBox="0 0 40 40" fill="none" xmlns="http://www.w3.org/2000/svg">
<g clip-path="url(#clip0)">
<path d="M1.14331 14.2989C1.14331 14.2989 0.196429 13.6038 1.33269 12.6758L3.98003 10.2652C3.98003 10.2652 4.73754 9.45359 5.53845 10.1607L29.9681 28.9955V38.0273C29.9681 38.0273 29.9563 39.4455 28.169 39.2888L1.14331 14.2989Z" fill="#2489CA"/>
<path d="M7.44032 20.1207L1.14353 25.9503C1.14353 25.9503 0.496491 26.4404 1.14353 27.3163L4.06704 30.0242C4.06704 30.0242 4.76142 30.7835 5.78722 29.9197L12.4628 24.7651L7.44032 20.1207Z" fill="#1070B3"/>
<path d="M18.4949 20.1688L30.0429 11.1892L29.968 2.20568C29.968 2.20568 29.4748 0.245043 27.8296 1.26554L12.4624 15.5083L18.4949 20.1688Z" fill="#0877B9"/>
<path d="M28.1689 39.3009C28.8396 40 29.6524 39.771 29.6524 39.771L38.652 35.2551C39.8041 34.4556 39.6423 33.4632 39.6423 33.4632V6.4966C39.6423 5.31138 38.4508 4.90158 38.4508 4.90158L30.6506 1.07273C28.9462 1.13845e-05 27.8296 1.26558 27.8296 1.26558C27.8296 1.26558 29.2657 0.212948 29.968 2.20572V37.8626C29.968 38.1077 29.9167 38.3487 29.8142 38.5657C29.609 38.9876 29.1632 39.3813 28.0939 39.2166L28.1689 39.3009Z" fill="#3C99D4"/>
</g>
<defs>
<clipPath id="clip0">
<rect width="40" height="40" fill="white"/>
</clipPath>
</defs>
</svg>
