<svg fill="none" height="266" viewBox="0 0 350 266" width="350" xmlns="http://www.w3.org/2000/svg"><g clip-rule="evenodd" fill="#bdbec9" fill-rule="evenodd"><path d="m349 266c.552 0 1-.448 1-1s-.448-1-1-1-1 .448-1 1 .448 1 1 1z"/><path d="m337 266c.552 0 1-.448 1-1s-.448-1-1-1-1 .448-1 1 .448 1 1 1z"/><path d="m325 266c.552 0 1-.448 1-1s-.448-1-1-1-1 .448-1 1 .448 1 1 1z"/><path d="m313 266c.552 0 1-.448 1-1s-.448-1-1-1-1 .448-1 1 .448 1 1 1z"/><path d="m301 266c.552 0 1-.448 1-1s-.448-1-1-1-1 .448-1 1 .448 1 1 1z"/><path d="m289 266c.552 0 1-.448 1-1s-.448-1-1-1-1 .448-1 1 .448 1 1 1z"/><path d="m277 266c.552 0 1-.448 1-1s-.448-1-1-1-1 .448-1 1 .448 1 1 1z"/><path d="m265 266c.552 0 1-.448 1-1s-.448-1-1-1-1 .448-1 1 .448 1 1 1z"/><path d="m253 266c.552 0 1-.448 1-1s-.448-1-1-1-1 .448-1 1 .448 1 1 1z"/><path d="m241 266c.552 0 1-.448 1-1s-.448-1-1-1-1 .448-1 1 .448 1 1 1z"/><path d="m229 266c.552 0 1-.448 1-1s-.448-1-1-1-1 .448-1 1 .448 1 1 1z"/><path d="m217 266c.552 0 1-.448 1-1s-.448-1-1-1-1 .448-1 1 .448 1 1 1z"/><path d="m205 266c.552 0 1-.448 1-1s-.448-1-1-1-1 .448-1 1 .448 1 1 1z"/><path d="m193 266c.552 0 1-.448 1-1s-.448-1-1-1-1 .448-1 1 .448 1 1 1z"/><path d="m181 266c.552 0 1-.448 1-1s-.448-1-1-1-1 .448-1 1 .448 1 1 1z"/><path d="m169 266c.552 0 1-.448 1-1s-.448-1-1-1-1 .448-1 1 .448 1 1 1z"/><path d="m157 266c.552 0 1-.448 1-1s-.448-1-1-1-1 .448-1 1 .448 1 1 1z"/><path d="m145 266c.552 0 1-.448 1-1s-.448-1-1-1-1 .448-1 1 .448 1 1 1z"/><path d="m133 266c.552 0 1-.448 1-1s-.448-1-1-1-1 .448-1 1 .448 1 1 1z"/><path d="m121 266c.552 0 1-.448 1-1s-.448-1-1-1-1 .448-1 1 .448 1 1 1z"/><path d="m109 266c.552 0 1-.448 1-1s-.448-1-1-1-1 .448-1 1 .448 1 1 1z"/><path d="m97 266c.5523 0 1-.448 1-1s-.4477-1-1-1-1 .448-1 1 .4477 1 1 1z"/><path d="m85 266c.5523 0 1-.448 1-1s-.4477-1-1-1-1 .448-1 1 .4477 1 1 1z"/><path d="m73 266c.5523 0 1-.448 1-1s-.4477-1-1-1-1 .448-1 1 .4477 1 1 1z"/><path d="m61 266c.5523 0 1-.448 1-1s-.4477-1-1-1-1 .448-1 1 .4477 1 1 1z"/><path d="m49 266c.5523 0 1-.448 1-1s-.4477-1-1-1-1 .448-1 1 .4477 1 1 1z"/><path d="m37 266c.5523 0 1-.448 1-1s-.4477-1-1-1-1 .448-1 1 .4477 1 1 1z"/><path d="m25 266c.5523 0 1-.448 1-1s-.4477-1-1-1-1 .448-1 1 .4477 1 1 1z"/><path d="m13 266c.5523 0 1-.448 1-1s-.4477-1-1-1-1 .448-1 1 .4477 1 1 1z"/><path d="m1 266c.55228 0 1-.448 1-1s-.44772-1-1-1c-.552285 0-1 .448-1 1s.447715 1 1 1z"/><path d="m349 254c.552 0 1-.448 1-1s-.448-1-1-1-1 .448-1 1 .448 1 1 1z"/><path d="m337 254c.552 0 1-.448 1-1s-.448-1-1-1-1 .448-1 1 .448 1 1 1z"/><path d="m325 254c.552 0 1-.448 1-1s-.448-1-1-1-1 .448-1 1 .448 1 1 1z"/><path d="m313 254c.552 0 1-.448 1-1s-.448-1-1-1-1 .448-1 1 .448 1 1 1z"/><path d="m301 254c.552 0 1-.448 1-1s-.448-1-1-1-1 .448-1 1 .448 1 1 1z"/><path d="m289 254c.552 0 1-.448 1-1s-.448-1-1-1-1 .448-1 1 .448 1 1 1z"/><path d="m277 254c.552 0 1-.448 1-1s-.448-1-1-1-1 .448-1 1 .448 1 1 1z"/><path d="m265 254c.552 0 1-.448 1-1s-.448-1-1-1-1 .448-1 1 .448 1 1 1z"/><path d="m253 254c.552 0 1-.448 1-1s-.448-1-1-1-1 .448-1 1 .448 1 1 1z"/><path d="m241 254c.552 0 1-.448 1-1s-.448-1-1-1-1 .448-1 1 .448 1 1 1z"/><path d="m229 254c.552 0 1-.448 1-1s-.448-1-1-1-1 .448-1 1 .448 1 1 1z"/><path d="m217 254c.552 0 1-.448 1-1s-.448-1-1-1-1 .448-1 1 .448 1 1 1z"/><path d="m205 254c.552 0 1-.448 1-1s-.448-1-1-1-1 .448-1 1 .448 1 1 1z"/><path d="m193 254c.552 0 1-.448 1-1s-.448-1-1-1-1 .448-1 1 .448 1 1 1z"/><path d="m181 254c.552 0 1-.448 1-1s-.448-1-1-1-1 .448-1 1 .448 1 1 1z"/><path d="m169 254c.552 0 1-.448 1-1s-.448-1-1-1-1 .448-1 1 .448 1 1 1z"/><path d="m157 254c.552 0 1-.448 1-1s-.448-1-1-1-1 .448-1 1 .448 1 1 1z"/><path d="m145 254c.552 0 1-.448 1-1s-.448-1-1-1-1 .448-1 1 .448 1 1 1z"/><path d="m133 254c.552 0 1-.448 1-1s-.448-1-1-1-1 .448-1 1 .448 1 1 1z"/><path d="m121 254c.552 0 1-.448 1-1s-.448-1-1-1-1 .448-1 1 .448 1 1 1z"/><path d="m109 254c.552 0 1-.448 1-1s-.448-1-1-1-1 .448-1 1 .448 1 1 1z"/><path d="m97 254c.5523 0 1-.448 1-1s-.4477-1-1-1-1 .448-1 1 .4477 1 1 1z"/><path d="m85 254c.5523 0 1-.448 1-1s-.4477-1-1-1-1 .448-1 1 .4477 1 1 1z"/><path d="m73 254c.5523 0 1-.448 1-1s-.4477-1-1-1-1 .448-1 1 .4477 1 1 1z"/><path d="m61 254c.5523 0 1-.448 1-1s-.4477-1-1-1-1 .448-1 1 .4477 1 1 1z"/><path d="m49 254c.5523 0 1-.448 1-1s-.4477-1-1-1-1 .448-1 1 .4477 1 1 1z"/><path d="m37 254c.5523 0 1-.448 1-1s-.4477-1-1-1-1 .448-1 1 .4477 1 1 1z"/><path d="m25 254c.5523 0 1-.448 1-1s-.4477-1-1-1-1 .448-1 1 .4477 1 1 1z"/><path d="m13 254c.5523 0 1-.448 1-1s-.4477-1-1-1-1 .448-1 1 .4477 1 1 1z"/><path d="m1 254c.55228 0 1-.448 1-1s-.44772-1-1-1c-.552285 0-1 .448-1 1s.447715 1 1 1z"/><path d="m349 242c.552 0 1-.448 1-1s-.448-1-1-1-1 .448-1 1 .448 1 1 1z"/><path d="m337 242c.552 0 1-.448 1-1s-.448-1-1-1-1 .448-1 1 .448 1 1 1z"/><path d="m325 242c.552 0 1-.448 1-1s-.448-1-1-1-1 .448-1 1 .448 1 1 1z"/><path d="m313 242c.552 0 1-.448 1-1s-.448-1-1-1-1 .448-1 1 .448 1 1 1z"/><path d="m301 242c.552 0 1-.448 1-1s-.448-1-1-1-1 .448-1 1 .448 1 1 1z"/><path d="m289 242c.552 0 1-.448 1-1s-.448-1-1-1-1 .448-1 1 .448 1 1 1z"/><path d="m277 242c.552 0 1-.448 1-1s-.448-1-1-1-1 .448-1 1 .448 1 1 1z"/><path d="m265 242c.552 0 1-.448 1-1s-.448-1-1-1-1 .448-1 1 .448 1 1 1z"/><path d="m253 242c.552 0 1-.448 1-1s-.448-1-1-1-1 .448-1 1 .448 1 1 1z"/><path d="m241 242c.552 0 1-.448 1-1s-.448-1-1-1-1 .448-1 1 .448 1 1 1z"/><path d="m229 242c.552 0 1-.448 1-1s-.448-1-1-1-1 .448-1 1 .448 1 1 1z"/><path d="m217 242c.552 0 1-.448 1-1s-.448-1-1-1-1 .448-1 1 .448 1 1 1z"/><path d="m205 242c.552 0 1-.448 1-1s-.448-1-1-1-1 .448-1 1 .448 1 1 1z"/><path d="m193 242c.552 0 1-.448 1-1s-.448-1-1-1-1 .448-1 1 .448 1 1 1z"/><path d="m181 242c.552 0 1-.448 1-1s-.448-1-1-1-1 .448-1 1 .448 1 1 1z"/><path d="m169 242c.552 0 1-.448 1-1s-.448-1-1-1-1 .448-1 1 .448 1 1 1z"/><path d="m157 242c.552 0 1-.448 1-1s-.448-1-1-1-1 .448-1 1 .448 1 1 1z"/><path d="m145 242c.552 0 1-.448 1-1s-.448-1-1-1-1 .448-1 1 .448 1 1 1z"/><path d="m133 242c.552 0 1-.448 1-1s-.448-1-1-1-1 .448-1 1 .448 1 1 1z"/><path d="m121 242c.552 0 1-.448 1-1s-.448-1-1-1-1 .448-1 1 .448 1 1 1z"/><path d="m109 242c.552 0 1-.448 1-1s-.448-1-1-1-1 .448-1 1 .448 1 1 1z"/><path d="m97 242c.5523 0 1-.448 1-1s-.4477-1-1-1-1 .448-1 1 .4477 1 1 1z"/><path d="m85 242c.5523 0 1-.448 1-1s-.4477-1-1-1-1 .448-1 1 .4477 1 1 1z"/><path d="m73 242c.5523 0 1-.448 1-1s-.4477-1-1-1-1 .448-1 1 .4477 1 1 1z"/><path d="m61 242c.5523 0 1-.448 1-1s-.4477-1-1-1-1 .448-1 1 .4477 1 1 1z"/><path d="m49 242c.5523 0 1-.448 1-1s-.4477-1-1-1-1 .448-1 1 .4477 1 1 1z"/><path d="m37 242c.5523 0 1-.448 1-1s-.4477-1-1-1-1 .448-1 1 .4477 1 1 1z"/><path d="m25 242c.5523 0 1-.448 1-1s-.4477-1-1-1-1 .448-1 1 .4477 1 1 1z"/><path d="m13 242c.5523 0 1-.448 1-1s-.4477-1-1-1-1 .448-1 1 .4477 1 1 1z"/><path d="m1 242c.55228 0 1-.448 1-1s-.44772-1-1-1c-.552285 0-1 .448-1 1s.447715 1 1 1z"/><path d="m349 230c.552 0 1-.448 1-1s-.448-1-1-1-1 .448-1 1 .448 1 1 1z"/><path d="m337 230c.552 0 1-.448 1-1s-.448-1-1-1-1 .448-1 1 .448 1 1 1z"/><path d="m325 230c.552 0 1-.448 1-1s-.448-1-1-1-1 .448-1 1 .448 1 1 1z"/><path d="m313 230c.552 0 1-.448 1-1s-.448-1-1-1-1 .448-1 1 .448 1 1 1z"/><path d="m301 230c.552 0 1-.448 1-1s-.448-1-1-1-1 .448-1 1 .448 1 1 1z"/><path d="m289 230c.552 0 1-.448 1-1s-.448-1-1-1-1 .448-1 1 .448 1 1 1z"/><path d="m277 230c.552 0 1-.448 1-1s-.448-1-1-1-1 .448-1 1 .448 1 1 1z"/><path d="m265 230c.552 0 1-.448 1-1s-.448-1-1-1-1 .448-1 1 .448 1 1 1z"/><path d="m253 230c.552 0 1-.448 1-1s-.448-1-1-1-1 .448-1 1 .448 1 1 1z"/><path d="m241 230c.552 0 1-.448 1-1s-.448-1-1-1-1 .448-1 1 .448 1 1 1z"/><path d="m229 230c.552 0 1-.448 1-1s-.448-1-1-1-1 .448-1 1 .448 1 1 1z"/><path d="m217 230c.552 0 1-.448 1-1s-.448-1-1-1-1 .448-1 1 .448 1 1 1z"/><path d="m205 230c.552 0 1-.448 1-1s-.448-1-1-1-1 .448-1 1 .448 1 1 1z"/><path d="m193 230c.552 0 1-.448 1-1s-.448-1-1-1-1 .448-1 1 .448 1 1 1z"/><path d="m181 230c.552 0 1-.448 1-1s-.448-1-1-1-1 .448-1 1 .448 1 1 1z"/><path d="m169 230c.552 0 1-.448 1-1s-.448-1-1-1-1 .448-1 1 .448 1 1 1z"/><path d="m157 230c.552 0 1-.448 1-1s-.448-1-1-1-1 .448-1 1 .448 1 1 1z"/><path d="m145 230c.552 0 1-.448 1-1s-.448-1-1-1-1 .448-1 1 .448 1 1 1z"/><path d="m133 230c.552 0 1-.448 1-1s-.448-1-1-1-1 .448-1 1 .448 1 1 1z"/><path d="m121 230c.552 0 1-.448 1-1s-.448-1-1-1-1 .448-1 1 .448 1 1 1z"/><path d="m109 230c.552 0 1-.448 1-1s-.448-1-1-1-1 .448-1 1 .448 1 1 1z"/><path d="m97 230c.5523 0 1-.448 1-1s-.4477-1-1-1-1 .448-1 1 .4477 1 1 1z"/><path d="m85 230c.5523 0 1-.448 1-1s-.4477-1-1-1-1 .448-1 1 .4477 1 1 1z"/><path d="m73 230c.5523 0 1-.448 1-1s-.4477-1-1-1-1 .448-1 1 .4477 1 1 1z"/><path d="m61 230c.5523 0 1-.448 1-1s-.4477-1-1-1-1 .448-1 1 .4477 1 1 1z"/><path d="m49 230c.5523 0 1-.448 1-1s-.4477-1-1-1-1 .448-1 1 .4477 1 1 1z"/><path d="m37 230c.5523 0 1-.448 1-1s-.4477-1-1-1-1 .448-1 1 .4477 1 1 1z"/><path d="m25 230c.5523 0 1-.448 1-1s-.4477-1-1-1-1 .448-1 1 .4477 1 1 1z"/><path d="m13 230c.5523 0 1-.448 1-1s-.4477-1-1-1-1 .448-1 1 .4477 1 1 1z"/><path d="m1 230c.55228 0 1-.448 1-1s-.44772-1-1-1c-.552285 0-1 .448-1 1s.447715 1 1 1z"/><path d="m349 218c.552 0 1-.448 1-1s-.448-1-1-1-1 .448-1 1 .448 1 1 1z"/><path d="m337 218c.552 0 1-.448 1-1s-.448-1-1-1-1 .448-1 1 .448 1 1 1z"/><path d="m325 218c.552 0 1-.448 1-1s-.448-1-1-1-1 .448-1 1 .448 1 1 1z"/><path d="m313 218c.552 0 1-.448 1-1s-.448-1-1-1-1 .448-1 1 .448 1 1 1z"/><path d="m301 218c.552 0 1-.448 1-1s-.448-1-1-1-1 .448-1 1 .448 1 1 1z"/><path d="m289 218c.552 0 1-.448 1-1s-.448-1-1-1-1 .448-1 1 .448 1 1 1z"/><path d="m277 218c.552 0 1-.448 1-1s-.448-1-1-1-1 .448-1 1 .448 1 1 1z"/><path d="m265 218c.552 0 1-.448 1-1s-.448-1-1-1-1 .448-1 1 .448 1 1 1z"/><path d="m253 218c.552 0 1-.448 1-1s-.448-1-1-1-1 .448-1 1 .448 1 1 1z"/><path d="m241 218c.552 0 1-.448 1-1s-.448-1-1-1-1 .448-1 1 .448 1 1 1z"/><path d="m229 218c.552 0 1-.448 1-1s-.448-1-1-1-1 .448-1 1 .448 1 1 1z"/><path d="m217 218c.552 0 1-.448 1-1s-.448-1-1-1-1 .448-1 1 .448 1 1 1z"/><path d="m205 218c.552 0 1-.448 1-1s-.448-1-1-1-1 .448-1 1 .448 1 1 1z"/><path d="m193 218c.552 0 1-.448 1-1s-.448-1-1-1-1 .448-1 1 .448 1 1 1z"/><path d="m181 218c.552 0 1-.448 1-1s-.448-1-1-1-1 .448-1 1 .448 1 1 1z"/><path d="m169 218c.552 0 1-.448 1-1s-.448-1-1-1-1 .448-1 1 .448 1 1 1z"/><path d="m157 218c.552 0 1-.448 1-1s-.448-1-1-1-1 .448-1 1 .448 1 1 1z"/><path d="m145 218c.552 0 1-.448 1-1s-.448-1-1-1-1 .448-1 1 .448 1 1 1z"/><path d="m133 218c.552 0 1-.448 1-1s-.448-1-1-1-1 .448-1 1 .448 1 1 1z"/><path d="m121 218c.552 0 1-.448 1-1s-.448-1-1-1-1 .448-1 1 .448 1 1 1z"/><path d="m109 218c.552 0 1-.448 1-1s-.448-1-1-1-1 .448-1 1 .448 1 1 1z"/><path d="m97 218c.5523 0 1-.448 1-1s-.4477-1-1-1-1 .448-1 1 .4477 1 1 1z"/><path d="m85 218c.5523 0 1-.448 1-1s-.4477-1-1-1-1 .448-1 1 .4477 1 1 1z"/><path d="m73 218c.5523 0 1-.448 1-1s-.4477-1-1-1-1 .448-1 1 .4477 1 1 1z"/><path d="m61 218c.5523 0 1-.448 1-1s-.4477-1-1-1-1 .448-1 1 .4477 1 1 1z"/><path d="m49 218c.5523 0 1-.448 1-1s-.4477-1-1-1-1 .448-1 1 .4477 1 1 1z"/><path d="m37 218c.5523 0 1-.448 1-1s-.4477-1-1-1-1 .448-1 1 .4477 1 1 1z"/><path d="m25 218c.5523 0 1-.448 1-1s-.4477-1-1-1-1 .448-1 1 .4477 1 1 1z"/><path d="m13 218c.5523 0 1-.448 1-1s-.4477-1-1-1-1 .448-1 1 .4477 1 1 1z"/><path d="m1 218c.55228 0 1-.448 1-1s-.44772-1-1-1c-.552285 0-1 .448-1 1s.447715 1 1 1z"/><path d="m349 206c.552 0 1-.448 1-1s-.448-1-1-1-1 .448-1 1 .448 1 1 1z"/><path d="m337 206c.552 0 1-.448 1-1s-.448-1-1-1-1 .448-1 1 .448 1 1 1z"/><path d="m325 206c.552 0 1-.448 1-1s-.448-1-1-1-1 .448-1 1 .448 1 1 1z"/><path d="m313 206c.552 0 1-.448 1-1s-.448-1-1-1-1 .448-1 1 .448 1 1 1z"/><path d="m301 206c.552 0 1-.448 1-1s-.448-1-1-1-1 .448-1 1 .448 1 1 1z"/><path d="m289 206c.552 0 1-.448 1-1s-.448-1-1-1-1 .448-1 1 .448 1 1 1z"/><path d="m277 206c.552 0 1-.448 1-1s-.448-1-1-1-1 .448-1 1 .448 1 1 1z"/><path d="m265 206c.552 0 1-.448 1-1s-.448-1-1-1-1 .448-1 1 .448 1 1 1z"/><path d="m253 206c.552 0 1-.448 1-1s-.448-1-1-1-1 .448-1 1 .448 1 1 1z"/><path d="m241 206c.552 0 1-.448 1-1s-.448-1-1-1-1 .448-1 1 .448 1 1 1z"/><path d="m229 206c.552 0 1-.448 1-1s-.448-1-1-1-1 .448-1 1 .448 1 1 1z"/><path d="m217 206c.552 0 1-.448 1-1s-.448-1-1-1-1 .448-1 1 .448 1 1 1z"/><path d="m205 206c.552 0 1-.448 1-1s-.448-1-1-1-1 .448-1 1 .448 1 1 1z"/><path d="m193 206c.552 0 1-.448 1-1s-.448-1-1-1-1 .448-1 1 .448 1 1 1z"/><path d="m181 206c.552 0 1-.448 1-1s-.448-1-1-1-1 .448-1 1 .448 1 1 1z"/><path d="m169 206c.552 0 1-.448 1-1s-.448-1-1-1-1 .448-1 1 .448 1 1 1z"/><path d="m157 206c.552 0 1-.448 1-1s-.448-1-1-1-1 .448-1 1 .448 1 1 1z"/><path d="m145 206c.552 0 1-.448 1-1s-.448-1-1-1-1 .448-1 1 .448 1 1 1z"/><path d="m133 206c.552 0 1-.448 1-1s-.448-1-1-1-1 .448-1 1 .448 1 1 1z"/><path d="m121 206c.552 0 1-.448 1-1s-.448-1-1-1-1 .448-1 1 .448 1 1 1z"/><path d="m109 206c.552 0 1-.448 1-1s-.448-1-1-1-1 .448-1 1 .448 1 1 1z"/><path d="m97 206c.5523 0 1-.448 1-1s-.4477-1-1-1-1 .448-1 1 .4477 1 1 1z"/><path d="m85 206c.5523 0 1-.448 1-1s-.4477-1-1-1-1 .448-1 1 .4477 1 1 1z"/><path d="m73 206c.5523 0 1-.448 1-1s-.4477-1-1-1-1 .448-1 1 .4477 1 1 1z"/><path d="m61 206c.5523 0 1-.448 1-1s-.4477-1-1-1-1 .448-1 1 .4477 1 1 1z"/><path d="m49 206c.5523 0 1-.448 1-1s-.4477-1-1-1-1 .448-1 1 .4477 1 1 1z"/><path d="m37 206c.5523 0 1-.448 1-1s-.4477-1-1-1-1 .448-1 1 .4477 1 1 1z"/><path d="m25 206c.5523 0 1-.448 1-1s-.4477-1-1-1-1 .448-1 1 .4477 1 1 1z"/><path d="m13 206c.5523 0 1-.448 1-1s-.4477-1-1-1-1 .448-1 1 .4477 1 1 1z"/><path d="m1 206c.55228 0 1-.448 1-1s-.44772-1-1-1c-.552285 0-1 .448-1 1s.447715 1 1 1z"/><path d="m349 194c.552 0 1-.448 1-1s-.448-1-1-1-1 .448-1 1 .448 1 1 1z"/><path d="m337 194c.552 0 1-.448 1-1s-.448-1-1-1-1 .448-1 1 .448 1 1 1z"/><path d="m325 194c.552 0 1-.448 1-1s-.448-1-1-1-1 .448-1 1 .448 1 1 1z"/><path d="m313 194c.552 0 1-.448 1-1s-.448-1-1-1-1 .448-1 1 .448 1 1 1z"/><path d="m301 194c.552 0 1-.448 1-1s-.448-1-1-1-1 .448-1 1 .448 1 1 1z"/><path d="m289 194c.552 0 1-.448 1-1s-.448-1-1-1-1 .448-1 1 .448 1 1 1z"/><path d="m277 194c.552 0 1-.448 1-1s-.448-1-1-1-1 .448-1 1 .448 1 1 1z"/><path d="m265 194c.552 0 1-.448 1-1s-.448-1-1-1-1 .448-1 1 .448 1 1 1z"/><path d="m253 194c.552 0 1-.448 1-1s-.448-1-1-1-1 .448-1 1 .448 1 1 1z"/><path d="m241 194c.552 0 1-.448 1-1s-.448-1-1-1-1 .448-1 1 .448 1 1 1z"/><path d="m229 194c.552 0 1-.448 1-1s-.448-1-1-1-1 .448-1 1 .448 1 1 1z"/><path d="m217 194c.552 0 1-.448 1-1s-.448-1-1-1-1 .448-1 1 .448 1 1 1z"/><path d="m205 194c.552 0 1-.448 1-1s-.448-1-1-1-1 .448-1 1 .448 1 1 1z"/><path d="m193 194c.552 0 1-.448 1-1s-.448-1-1-1-1 .448-1 1 .448 1 1 1z"/><path d="m181 194c.552 0 1-.448 1-1s-.448-1-1-1-1 .448-1 1 .448 1 1 1z"/><path d="m169 194c.552 0 1-.448 1-1s-.448-1-1-1-1 .448-1 1 .448 1 1 1z"/><path d="m157 194c.552 0 1-.448 1-1s-.448-1-1-1-1 .448-1 1 .448 1 1 1z"/><path d="m145 194c.552 0 1-.448 1-1s-.448-1-1-1-1 .448-1 1 .448 1 1 1z"/><path d="m133 194c.552 0 1-.448 1-1s-.448-1-1-1-1 .448-1 1 .448 1 1 1z"/><path d="m121 194c.552 0 1-.448 1-1s-.448-1-1-1-1 .448-1 1 .448 1 1 1z"/><path d="m109 194c.552 0 1-.448 1-1s-.448-1-1-1-1 .448-1 1 .448 1 1 1z"/><path d="m97 194c.5523 0 1-.448 1-1s-.4477-1-1-1-1 .448-1 1 .4477 1 1 1z"/><path d="m85 194c.5523 0 1-.448 1-1s-.4477-1-1-1-1 .448-1 1 .4477 1 1 1z"/><path d="m73 194c.5523 0 1-.448 1-1s-.4477-1-1-1-1 .448-1 1 .4477 1 1 1z"/><path d="m61 194c.5523 0 1-.448 1-1s-.4477-1-1-1-1 .448-1 1 .4477 1 1 1z"/><path d="m49 194c.5523 0 1-.448 1-1s-.4477-1-1-1-1 .448-1 1 .4477 1 1 1z"/><path d="m37 194c.5523 0 1-.448 1-1s-.4477-1-1-1-1 .448-1 1 .4477 1 1 1z"/><path d="m25 194c.5523 0 1-.448 1-1s-.4477-1-1-1-1 .448-1 1 .4477 1 1 1z"/><path d="m13 194c.5523 0 1-.448 1-1s-.4477-1-1-1-1 .448-1 1 .4477 1 1 1z"/><path d="m1 194c.55228 0 1-.448 1-1s-.44772-1-1-1c-.552285 0-1 .448-1 1s.447715 1 1 1z"/><path d="m349 182c.552 0 1-.448 1-1s-.448-1-1-1-1 .448-1 1 .448 1 1 1z"/><path d="m337 182c.552 0 1-.448 1-1s-.448-1-1-1-1 .448-1 1 .448 1 1 1z"/><path d="m325 182c.552 0 1-.448 1-1s-.448-1-1-1-1 .448-1 1 .448 1 1 1z"/><path d="m313 182c.552 0 1-.448 1-1s-.448-1-1-1-1 .448-1 1 .448 1 1 1z"/><path d="m301 182c.552 0 1-.448 1-1s-.448-1-1-1-1 .448-1 1 .448 1 1 1z"/><path d="m289 182c.552 0 1-.448 1-1s-.448-1-1-1-1 .448-1 1 .448 1 1 1z"/><path d="m277 182c.552 0 1-.448 1-1s-.448-1-1-1-1 .448-1 1 .448 1 1 1z"/><path d="m265 182c.552 0 1-.448 1-1s-.448-1-1-1-1 .448-1 1 .448 1 1 1z"/><path d="m253 182c.552 0 1-.448 1-1s-.448-1-1-1-1 .448-1 1 .448 1 1 1z"/><path d="m241 182c.552 0 1-.448 1-1s-.448-1-1-1-1 .448-1 1 .448 1 1 1z"/><path d="m229 182c.552 0 1-.448 1-1s-.448-1-1-1-1 .448-1 1 .448 1 1 1z"/><path d="m217 182c.552 0 1-.448 1-1s-.448-1-1-1-1 .448-1 1 .448 1 1 1z"/><path d="m205 182c.552 0 1-.448 1-1s-.448-1-1-1-1 .448-1 1 .448 1 1 1z"/><path d="m193 182c.552 0 1-.448 1-1s-.448-1-1-1-1 .448-1 1 .448 1 1 1z"/><path d="m181 182c.552 0 1-.448 1-1s-.448-1-1-1-1 .448-1 1 .448 1 1 1z"/><path d="m169 182c.552 0 1-.448 1-1s-.448-1-1-1-1 .448-1 1 .448 1 1 1z"/><path d="m157 182c.552 0 1-.448 1-1s-.448-1-1-1-1 .448-1 1 .448 1 1 1z"/><path d="m145 182c.552 0 1-.448 1-1s-.448-1-1-1-1 .448-1 1 .448 1 1 1z"/><path d="m133 182c.552 0 1-.448 1-1s-.448-1-1-1-1 .448-1 1 .448 1 1 1z"/><path d="m121 182c.552 0 1-.448 1-1s-.448-1-1-1-1 .448-1 1 .448 1 1 1z"/><path d="m109 182c.552 0 1-.448 1-1s-.448-1-1-1-1 .448-1 1 .448 1 1 1z"/><path d="m97 182c.5523 0 1-.448 1-1s-.4477-1-1-1-1 .448-1 1 .4477 1 1 1z"/><path d="m85 182c.5523 0 1-.448 1-1s-.4477-1-1-1-1 .448-1 1 .4477 1 1 1z"/><path d="m73 182c.5523 0 1-.448 1-1s-.4477-1-1-1-1 .448-1 1 .4477 1 1 1z"/><path d="m61 182c.5523 0 1-.448 1-1s-.4477-1-1-1-1 .448-1 1 .4477 1 1 1z"/><path d="m49 182c.5523 0 1-.448 1-1s-.4477-1-1-1-1 .448-1 1 .4477 1 1 1z"/><path d="m37 182c.5523 0 1-.448 1-1s-.4477-1-1-1-1 .448-1 1 .4477 1 1 1z"/><path d="m25 182c.5523 0 1-.448 1-1s-.4477-1-1-1-1 .448-1 1 .4477 1 1 1z"/><path d="m13 182c.5523 0 1-.448 1-1s-.4477-1-1-1-1 .448-1 1 .4477 1 1 1z"/><path d="m1 182c.55228 0 1-.448 1-1s-.44772-1-1-1c-.552285 0-1 .448-1 1s.447715 1 1 1z"/><path d="m349 170c.552 0 1-.448 1-1s-.448-1-1-1-1 .448-1 1 .448 1 1 1z"/><path d="m337 170c.552 0 1-.448 1-1s-.448-1-1-1-1 .448-1 1 .448 1 1 1z"/><path d="m325 170c.552 0 1-.448 1-1s-.448-1-1-1-1 .448-1 1 .448 1 1 1z"/><path d="m313 170c.552 0 1-.448 1-1s-.448-1-1-1-1 .448-1 1 .448 1 1 1z"/><path d="m301 170c.552 0 1-.448 1-1s-.448-1-1-1-1 .448-1 1 .448 1 1 1z"/><path d="m289 170c.552 0 1-.448 1-1s-.448-1-1-1-1 .448-1 1 .448 1 1 1z"/><path d="m277 170c.552 0 1-.448 1-1s-.448-1-1-1-1 .448-1 1 .448 1 1 1z"/><path d="m265 170c.552 0 1-.448 1-1s-.448-1-1-1-1 .448-1 1 .448 1 1 1z"/><path d="m253 170c.552 0 1-.448 1-1s-.448-1-1-1-1 .448-1 1 .448 1 1 1z"/><path d="m241 170c.552 0 1-.448 1-1s-.448-1-1-1-1 .448-1 1 .448 1 1 1z"/><path d="m229 170c.552 0 1-.448 1-1s-.448-1-1-1-1 .448-1 1 .448 1 1 1z"/><path d="m217 170c.552 0 1-.448 1-1s-.448-1-1-1-1 .448-1 1 .448 1 1 1z"/><path d="m205 170c.552 0 1-.448 1-1s-.448-1-1-1-1 .448-1 1 .448 1 1 1z"/><path d="m193 170c.552 0 1-.448 1-1s-.448-1-1-1-1 .448-1 1 .448 1 1 1z"/><path d="m181 170c.552 0 1-.448 1-1s-.448-1-1-1-1 .448-1 1 .448 1 1 1z"/><path d="m169 170c.552 0 1-.448 1-1s-.448-1-1-1-1 .448-1 1 .448 1 1 1z"/><path d="m157 170c.552 0 1-.448 1-1s-.448-1-1-1-1 .448-1 1 .448 1 1 1z"/><path d="m145 170c.552 0 1-.448 1-1s-.448-1-1-1-1 .448-1 1 .448 1 1 1z"/><path d="m133 170c.552 0 1-.448 1-1s-.448-1-1-1-1 .448-1 1 .448 1 1 1z"/><path d="m121 170c.552 0 1-.448 1-1s-.448-1-1-1-1 .448-1 1 .448 1 1 1z"/><path d="m109 170c.552 0 1-.448 1-1s-.448-1-1-1-1 .448-1 1 .448 1 1 1z"/><path d="m97 170c.5523 0 1-.448 1-1s-.4477-1-1-1-1 .448-1 1 .4477 1 1 1z"/><path d="m85 170c.5523 0 1-.448 1-1s-.4477-1-1-1-1 .448-1 1 .4477 1 1 1z"/><path d="m73 170c.5523 0 1-.448 1-1s-.4477-1-1-1-1 .448-1 1 .4477 1 1 1z"/><path d="m61 170c.5523 0 1-.448 1-1s-.4477-1-1-1-1 .448-1 1 .4477 1 1 1z"/><path d="m49 170c.5523 0 1-.448 1-1s-.4477-1-1-1-1 .448-1 1 .4477 1 1 1z"/><path d="m37 170c.5523 0 1-.448 1-1s-.4477-1-1-1-1 .448-1 1 .4477 1 1 1z"/><path d="m25 170c.5523 0 1-.448 1-1s-.4477-1-1-1-1 .448-1 1 .4477 1 1 1z"/><path d="m13 170c.5523 0 1-.448 1-1s-.4477-1-1-1-1 .448-1 1 .4477 1 1 1z"/><path d="m1 170c.55228 0 1-.448 1-1s-.44772-1-1-1c-.552285 0-1 .448-1 1s.447715 1 1 1z"/><path d="m349 158c.552 0 1-.448 1-1s-.448-1-1-1-1 .448-1 1 .448 1 1 1z"/><path d="m337 158c.552 0 1-.448 1-1s-.448-1-1-1-1 .448-1 1 .448 1 1 1z"/><path d="m325 158c.552 0 1-.448 1-1s-.448-1-1-1-1 .448-1 1 .448 1 1 1z"/><path d="m313 158c.552 0 1-.448 1-1s-.448-1-1-1-1 .448-1 1 .448 1 1 1z"/><path d="m301 158c.552 0 1-.448 1-1s-.448-1-1-1-1 .448-1 1 .448 1 1 1z"/><path d="m289 158c.552 0 1-.448 1-1s-.448-1-1-1-1 .448-1 1 .448 1 1 1z"/><path d="m277 158c.552 0 1-.448 1-1s-.448-1-1-1-1 .448-1 1 .448 1 1 1z"/><path d="m265 158c.552 0 1-.448 1-1s-.448-1-1-1-1 .448-1 1 .448 1 1 1z"/><path d="m253 158c.552 0 1-.448 1-1s-.448-1-1-1-1 .448-1 1 .448 1 1 1z"/><path d="m241 158c.552 0 1-.448 1-1s-.448-1-1-1-1 .448-1 1 .448 1 1 1z"/><path d="m229 158c.552 0 1-.448 1-1s-.448-1-1-1-1 .448-1 1 .448 1 1 1z"/><path d="m217 158c.552 0 1-.448 1-1s-.448-1-1-1-1 .448-1 1 .448 1 1 1z"/><path d="m205 158c.552 0 1-.448 1-1s-.448-1-1-1-1 .448-1 1 .448 1 1 1z"/><path d="m193 158c.552 0 1-.448 1-1s-.448-1-1-1-1 .448-1 1 .448 1 1 1z"/><path d="m181 158c.552 0 1-.448 1-1s-.448-1-1-1-1 .448-1 1 .448 1 1 1z"/><path d="m169 158c.552 0 1-.448 1-1s-.448-1-1-1-1 .448-1 1 .448 1 1 1z"/><path d="m157 158c.552 0 1-.448 1-1s-.448-1-1-1-1 .448-1 1 .448 1 1 1z"/><path d="m145 158c.552 0 1-.448 1-1s-.448-1-1-1-1 .448-1 1 .448 1 1 1z"/><path d="m133 158c.552 0 1-.448 1-1s-.448-1-1-1-1 .448-1 1 .448 1 1 1z"/><path d="m121 158c.552 0 1-.448 1-1s-.448-1-1-1-1 .448-1 1 .448 1 1 1z"/><path d="m109 158c.552 0 1-.448 1-1s-.448-1-1-1-1 .448-1 1 .448 1 1 1z"/><path d="m97 158c.5523 0 1-.448 1-1s-.4477-1-1-1-1 .448-1 1 .4477 1 1 1z"/><path d="m85 158c.5523 0 1-.448 1-1s-.4477-1-1-1-1 .448-1 1 .4477 1 1 1z"/><path d="m73 158c.5523 0 1-.448 1-1s-.4477-1-1-1-1 .448-1 1 .4477 1 1 1z"/><path d="m61 158c.5523 0 1-.448 1-1s-.4477-1-1-1-1 .448-1 1 .4477 1 1 1z"/><path d="m49 158c.5523 0 1-.448 1-1s-.4477-1-1-1-1 .448-1 1 .4477 1 1 1z"/><path d="m37 158c.5523 0 1-.448 1-1s-.4477-1-1-1-1 .448-1 1 .4477 1 1 1z"/><path d="m25 158c.5523 0 1-.448 1-1s-.4477-1-1-1-1 .448-1 1 .4477 1 1 1z"/><path d="m13 158c.5523 0 1-.448 1-1s-.4477-1-1-1-1 .448-1 1 .4477 1 1 1z"/><path d="m1 158c.55228 0 1-.448 1-1s-.44772-1-1-1c-.552285 0-1 .448-1 1s.447715 1 1 1z"/><path d="m349 146c.552 0 1-.448 1-1s-.448-1-1-1-1 .448-1 1 .448 1 1 1z"/><path d="m337 146c.552 0 1-.448 1-1s-.448-1-1-1-1 .448-1 1 .448 1 1 1z"/><path d="m325 146c.552 0 1-.448 1-1s-.448-1-1-1-1 .448-1 1 .448 1 1 1z"/><path d="m313 146c.552 0 1-.448 1-1s-.448-1-1-1-1 .448-1 1 .448 1 1 1z"/><path d="m301 146c.552 0 1-.448 1-1s-.448-1-1-1-1 .448-1 1 .448 1 1 1z"/><path d="m289 146c.552 0 1-.448 1-1s-.448-1-1-1-1 .448-1 1 .448 1 1 1z"/><path d="m277 146c.552 0 1-.448 1-1s-.448-1-1-1-1 .448-1 1 .448 1 1 1z"/><path d="m265 146c.552 0 1-.448 1-1s-.448-1-1-1-1 .448-1 1 .448 1 1 1z"/><path d="m253 146c.552 0 1-.448 1-1s-.448-1-1-1-1 .448-1 1 .448 1 1 1z"/><path d="m241 146c.552 0 1-.448 1-1s-.448-1-1-1-1 .448-1 1 .448 1 1 1z"/><path d="m229 146c.552 0 1-.448 1-1s-.448-1-1-1-1 .448-1 1 .448 1 1 1z"/><path d="m217 146c.552 0 1-.448 1-1s-.448-1-1-1-1 .448-1 1 .448 1 1 1z"/><path d="m205 146c.552 0 1-.448 1-1s-.448-1-1-1-1 .448-1 1 .448 1 1 1z"/><path d="m193 146c.552 0 1-.448 1-1s-.448-1-1-1-1 .448-1 1 .448 1 1 1z"/><path d="m181 146c.552 0 1-.448 1-1s-.448-1-1-1-1 .448-1 1 .448 1 1 1z"/><path d="m169 146c.552 0 1-.448 1-1s-.448-1-1-1-1 .448-1 1 .448 1 1 1z"/><path d="m157 146c.552 0 1-.448 1-1s-.448-1-1-1-1 .448-1 1 .448 1 1 1z"/><path d="m145 146c.552 0 1-.448 1-1s-.448-1-1-1-1 .448-1 1 .448 1 1 1z"/><path d="m133 146c.552 0 1-.448 1-1s-.448-1-1-1-1 .448-1 1 .448 1 1 1z"/><path d="m121 146c.552 0 1-.448 1-1s-.448-1-1-1-1 .448-1 1 .448 1 1 1z"/><path d="m109 146c.552 0 1-.448 1-1s-.448-1-1-1-1 .448-1 1 .448 1 1 1z"/><path d="m97 146c.5523 0 1-.448 1-1s-.4477-1-1-1-1 .448-1 1 .4477 1 1 1z"/><path d="m85 146c.5523 0 1-.448 1-1s-.4477-1-1-1-1 .448-1 1 .4477 1 1 1z"/><path d="m73 146c.5523 0 1-.448 1-1s-.4477-1-1-1-1 .448-1 1 .4477 1 1 1z"/><path d="m61 146c.5523 0 1-.448 1-1s-.4477-1-1-1-1 .448-1 1 .4477 1 1 1z"/><path d="m49 146c.5523 0 1-.448 1-1s-.4477-1-1-1-1 .448-1 1 .4477 1 1 1z"/><path d="m37 146c.5523 0 1-.448 1-1s-.4477-1-1-1-1 .448-1 1 .4477 1 1 1z"/><path d="m25 146c.5523 0 1-.448 1-1s-.4477-1-1-1-1 .448-1 1 .4477 1 1 1z"/><path d="m13 146c.5523 0 1-.448 1-1s-.4477-1-1-1-1 .448-1 1 .4477 1 1 1z"/><path d="m1 146c.55228 0 1-.448 1-1s-.44772-1-1-1c-.552285 0-1 .448-1 1s.447715 1 1 1z"/><path d="m349 134c.552 0 1-.448 1-1s-.448-1-1-1-1 .448-1 1 .448 1 1 1z"/><path d="m337 134c.552 0 1-.448 1-1s-.448-1-1-1-1 .448-1 1 .448 1 1 1z"/><path d="m325 134c.552 0 1-.448 1-1s-.448-1-1-1-1 .448-1 1 .448 1 1 1z"/><path d="m313 134c.552 0 1-.448 1-1s-.448-1-1-1-1 .448-1 1 .448 1 1 1z"/><path d="m301 134c.552 0 1-.448 1-1s-.448-1-1-1-1 .448-1 1 .448 1 1 1z"/><path d="m289 134c.552 0 1-.448 1-1s-.448-1-1-1-1 .448-1 1 .448 1 1 1z"/><path d="m277 134c.552 0 1-.448 1-1s-.448-1-1-1-1 .448-1 1 .448 1 1 1z"/><path d="m265 134c.552 0 1-.448 1-1s-.448-1-1-1-1 .448-1 1 .448 1 1 1z"/><path d="m253 134c.552 0 1-.448 1-1s-.448-1-1-1-1 .448-1 1 .448 1 1 1z"/><path d="m241 134c.552 0 1-.448 1-1s-.448-1-1-1-1 .448-1 1 .448 1 1 1z"/><path d="m229 134c.552 0 1-.448 1-1s-.448-1-1-1-1 .448-1 1 .448 1 1 1z"/><path d="m217 134c.552 0 1-.448 1-1s-.448-1-1-1-1 .448-1 1 .448 1 1 1z"/><path d="m205 134c.552 0 1-.448 1-1s-.448-1-1-1-1 .448-1 1 .448 1 1 1z"/><path d="m193 134c.552 0 1-.448 1-1s-.448-1-1-1-1 .448-1 1 .448 1 1 1z"/><path d="m181 134c.552 0 1-.448 1-1s-.448-1-1-1-1 .448-1 1 .448 1 1 1z"/><path d="m169 134c.552 0 1-.448 1-1s-.448-1-1-1-1 .448-1 1 .448 1 1 1z"/><path d="m157 134c.552 0 1-.448 1-1s-.448-1-1-1-1 .448-1 1 .448 1 1 1z"/><path d="m145 134c.552 0 1-.448 1-1s-.448-1-1-1-1 .448-1 1 .448 1 1 1z"/><path d="m133 134c.552 0 1-.448 1-1s-.448-1-1-1-1 .448-1 1 .448 1 1 1z"/><path d="m121 134c.552 0 1-.448 1-1s-.448-1-1-1-1 .448-1 1 .448 1 1 1z"/><path d="m109 134c.552 0 1-.448 1-1s-.448-1-1-1-1 .448-1 1 .448 1 1 1z"/><path d="m97 134c.5523 0 1-.448 1-1s-.4477-1-1-1-1 .448-1 1 .4477 1 1 1z"/><path d="m85 134c.5523 0 1-.448 1-1s-.4477-1-1-1-1 .448-1 1 .4477 1 1 1z"/><path d="m73 134c.5523 0 1-.448 1-1s-.4477-1-1-1-1 .448-1 1 .4477 1 1 1z"/><path d="m61 134c.5523 0 1-.448 1-1s-.4477-1-1-1-1 .448-1 1 .4477 1 1 1z"/><path d="m49 134c.5523 0 1-.448 1-1s-.4477-1-1-1-1 .448-1 1 .4477 1 1 1z"/><path d="m37 134c.5523 0 1-.448 1-1s-.4477-1-1-1-1 .448-1 1 .4477 1 1 1z"/><path d="m25 134c.5523 0 1-.448 1-1s-.4477-1-1-1-1 .448-1 1 .4477 1 1 1z"/><path d="m13 134c.5523 0 1-.448 1-1s-.4477-1-1-1-1 .448-1 1 .4477 1 1 1z"/><path d="m1 134c.55228 0 1-.448 1-1s-.44772-1-1-1c-.552285 0-1 .448-1 1s.447715 1 1 1z"/><path d="m349 122c.552 0 1-.448 1-1s-.448-1-1-1-1 .448-1 1 .448 1 1 1z"/><path d="m337 122c.552 0 1-.448 1-1s-.448-1-1-1-1 .448-1 1 .448 1 1 1z"/><path d="m325 122c.552 0 1-.448 1-1s-.448-1-1-1-1 .448-1 1 .448 1 1 1z"/><path d="m313 122c.552 0 1-.448 1-1s-.448-1-1-1-1 .448-1 1 .448 1 1 1z"/><path d="m301 122c.552 0 1-.448 1-1s-.448-1-1-1-1 .448-1 1 .448 1 1 1z"/><path d="m289 122c.552 0 1-.448 1-1s-.448-1-1-1-1 .448-1 1 .448 1 1 1z"/><path d="m277 122c.552 0 1-.448 1-1s-.448-1-1-1-1 .448-1 1 .448 1 1 1z"/><path d="m265 122c.552 0 1-.448 1-1s-.448-1-1-1-1 .448-1 1 .448 1 1 1z"/><path d="m253 122c.552 0 1-.448 1-1s-.448-1-1-1-1 .448-1 1 .448 1 1 1z"/><path d="m241 122c.552 0 1-.448 1-1s-.448-1-1-1-1 .448-1 1 .448 1 1 1z"/><path d="m229 122c.552 0 1-.448 1-1s-.448-1-1-1-1 .448-1 1 .448 1 1 1z"/><path d="m217 122c.552 0 1-.448 1-1s-.448-1-1-1-1 .448-1 1 .448 1 1 1z"/><path d="m205 122c.552 0 1-.448 1-1s-.448-1-1-1-1 .448-1 1 .448 1 1 1z"/><path d="m193 122c.552 0 1-.448 1-1s-.448-1-1-1-1 .448-1 1 .448 1 1 1z"/><path d="m181 122c.552 0 1-.448 1-1s-.448-1-1-1-1 .448-1 1 .448 1 1 1z"/><path d="m169 122c.552 0 1-.448 1-1s-.448-1-1-1-1 .448-1 1 .448 1 1 1z"/><path d="m157 122c.552 0 1-.448 1-1s-.448-1-1-1-1 .448-1 1 .448 1 1 1z"/><path d="m145 122c.552 0 1-.448 1-1s-.448-1-1-1-1 .448-1 1 .448 1 1 1z"/><path d="m133 122c.552 0 1-.448 1-1s-.448-1-1-1-1 .448-1 1 .448 1 1 1z"/><path d="m121 122c.552 0 1-.448 1-1s-.448-1-1-1-1 .448-1 1 .448 1 1 1z"/><path d="m109 122c.552 0 1-.448 1-1s-.448-1-1-1-1 .448-1 1 .448 1 1 1z"/><path d="m97 122c.5523 0 1-.448 1-1s-.4477-1-1-1-1 .448-1 1 .4477 1 1 1z"/><path d="m85 122c.5523 0 1-.448 1-1s-.4477-1-1-1-1 .448-1 1 .4477 1 1 1z"/><path d="m73 122c.5523 0 1-.448 1-1s-.4477-1-1-1-1 .448-1 1 .4477 1 1 1z"/><path d="m61 122c.5523 0 1-.448 1-1s-.4477-1-1-1-1 .448-1 1 .4477 1 1 1z"/><path d="m49 122c.5523 0 1-.448 1-1s-.4477-1-1-1-1 .448-1 1 .4477 1 1 1z"/><path d="m37 122c.5523 0 1-.448 1-1s-.4477-1-1-1-1 .448-1 1 .4477 1 1 1z"/><path d="m25 122c.5523 0 1-.448 1-1s-.4477-1-1-1-1 .448-1 1 .4477 1 1 1z"/><path d="m13 122c.5523 0 1-.448 1-1s-.4477-1-1-1-1 .448-1 1 .4477 1 1 1z"/><path d="m1 122c.55228 0 1-.448 1-1s-.44772-1-1-1c-.552285 0-1 .448-1 1s.447715 1 1 1z"/><path d="m349 110c.552 0 1-.448 1-1s-.448-1-1-1-1 .448-1 1 .448 1 1 1z"/><path d="m337 110c.552 0 1-.448 1-1s-.448-1-1-1-1 .448-1 1 .448 1 1 1z"/><path d="m325 110c.552 0 1-.448 1-1s-.448-1-1-1-1 .448-1 1 .448 1 1 1z"/><path d="m313 110c.552 0 1-.448 1-1s-.448-1-1-1-1 .448-1 1 .448 1 1 1z"/><path d="m301 110c.552 0 1-.448 1-1s-.448-1-1-1-1 .448-1 1 .448 1 1 1z"/><path d="m289 110c.552 0 1-.448 1-1s-.448-1-1-1-1 .448-1 1 .448 1 1 1z"/><path d="m277 110c.552 0 1-.448 1-1s-.448-1-1-1-1 .448-1 1 .448 1 1 1z"/><path d="m265 110c.552 0 1-.448 1-1s-.448-1-1-1-1 .448-1 1 .448 1 1 1z"/><path d="m253 110c.552 0 1-.448 1-1s-.448-1-1-1-1 .448-1 1 .448 1 1 1z"/><path d="m241 110c.552 0 1-.448 1-1s-.448-1-1-1-1 .448-1 1 .448 1 1 1z"/><path d="m229 110c.552 0 1-.448 1-1s-.448-1-1-1-1 .448-1 1 .448 1 1 1z"/><path d="m217 110c.552 0 1-.448 1-1s-.448-1-1-1-1 .448-1 1 .448 1 1 1z"/><path d="m205 110c.552 0 1-.448 1-1s-.448-1-1-1-1 .448-1 1 .448 1 1 1z"/><path d="m193 110c.552 0 1-.448 1-1s-.448-1-1-1-1 .448-1 1 .448 1 1 1z"/><path d="m181 110c.552 0 1-.448 1-1s-.448-1-1-1-1 .448-1 1 .448 1 1 1z"/><path d="m169 110c.552 0 1-.448 1-1s-.448-1-1-1-1 .448-1 1 .448 1 1 1z"/><path d="m157 110c.552 0 1-.448 1-1s-.448-1-1-1-1 .448-1 1 .448 1 1 1z"/><path d="m145 110c.552 0 1-.448 1-1s-.448-1-1-1-1 .448-1 1 .448 1 1 1z"/><path d="m133 110c.552 0 1-.448 1-1s-.448-1-1-1-1 .448-1 1 .448 1 1 1z"/><path d="m121 110c.552 0 1-.448 1-1s-.448-1-1-1-1 .448-1 1 .448 1 1 1z"/><path d="m109 110c.552 0 1-.448 1-1s-.448-1-1-1-1 .448-1 1 .448 1 1 1z"/><path d="m97 110c.5523 0 1-.448 1-1s-.4477-1-1-1-1 .448-1 1 .4477 1 1 1z"/><path d="m85 110c.5523 0 1-.448 1-1s-.4477-1-1-1-1 .448-1 1 .4477 1 1 1z"/><path d="m73 110c.5523 0 1-.448 1-1s-.4477-1-1-1-1 .448-1 1 .4477 1 1 1z"/><path d="m61 110c.5523 0 1-.448 1-1s-.4477-1-1-1-1 .448-1 1 .4477 1 1 1z"/><path d="m49 110c.5523 0 1-.448 1-1s-.4477-1-1-1-1 .448-1 1 .4477 1 1 1z"/><path d="m37 110c.5523 0 1-.448 1-1s-.4477-1-1-1-1 .448-1 1 .4477 1 1 1z"/><path d="m25 110c.5523 0 1-.448 1-1s-.4477-1-1-1-1 .448-1 1 .4477 1 1 1z"/><path d="m13 110c.5523 0 1-.448 1-1s-.4477-1-1-1-1 .448-1 1 .4477 1 1 1z"/><path d="m1 110c.55228 0 1-.448 1-1s-.44772-1-1-1c-.552285 0-1 .448-1 1s.447715 1 1 1z"/><path d="m349 98c.552 0 1-.4477 1-1s-.448-1-1-1-1 .4477-1 1 .448 1 1 1z"/><path d="m337 98c.552 0 1-.4477 1-1s-.448-1-1-1-1 .4477-1 1 .448 1 1 1z"/><path d="m325 98c.552 0 1-.4477 1-1s-.448-1-1-1-1 .4477-1 1 .448 1 1 1z"/><path d="m313 98c.552 0 1-.4477 1-1s-.448-1-1-1-1 .4477-1 1 .448 1 1 1z"/><path d="m301 98c.552 0 1-.4477 1-1s-.448-1-1-1-1 .4477-1 1 .448 1 1 1z"/><path d="m289 98c.552 0 1-.4477 1-1s-.448-1-1-1-1 .4477-1 1 .448 1 1 1z"/><path d="m277 98c.552 0 1-.4477 1-1s-.448-1-1-1-1 .4477-1 1 .448 1 1 1z"/><path d="m265 98c.552 0 1-.4477 1-1s-.448-1-1-1-1 .4477-1 1 .448 1 1 1z"/><path d="m253 98c.552 0 1-.4477 1-1s-.448-1-1-1-1 .4477-1 1 .448 1 1 1z"/><path d="m241 98c.552 0 1-.4477 1-1s-.448-1-1-1-1 .4477-1 1 .448 1 1 1z"/><path d="m229 98c.552 0 1-.4477 1-1s-.448-1-1-1-1 .4477-1 1 .448 1 1 1z"/><path d="m217 98c.552 0 1-.4477 1-1s-.448-1-1-1-1 .4477-1 1 .448 1 1 1z"/><path d="m205 98c.552 0 1-.4477 1-1s-.448-1-1-1-1 .4477-1 1 .448 1 1 1z"/><path d="m193 98c.552 0 1-.4477 1-1s-.448-1-1-1-1 .4477-1 1 .448 1 1 1z"/><path d="m181 98c.552 0 1-.4477 1-1s-.448-1-1-1-1 .4477-1 1 .448 1 1 1z"/><path d="m169 98c.552 0 1-.4477 1-1s-.448-1-1-1-1 .4477-1 1 .448 1 1 1z"/><path d="m157 98c.552 0 1-.4477 1-1s-.448-1-1-1-1 .4477-1 1 .448 1 1 1z"/><path d="m145 98c.552 0 1-.4477 1-1s-.448-1-1-1-1 .4477-1 1 .448 1 1 1z"/><path d="m133 98c.552 0 1-.4477 1-1s-.448-1-1-1-1 .4477-1 1 .448 1 1 1z"/><path d="m121 98c.552 0 1-.4477 1-1s-.448-1-1-1-1 .4477-1 1 .448 1 1 1z"/><path d="m109 98c.552 0 1-.4477 1-1s-.448-1-1-1-1 .4477-1 1 .448 1 1 1z"/><path d="m97 98c.5523 0 1-.4477 1-1s-.4477-1-1-1-1 .4477-1 1 .4477 1 1 1z"/><path d="m85 98c.5523 0 1-.4477 1-1s-.4477-1-1-1-1 .4477-1 1 .4477 1 1 1z"/><path d="m73 98c.5523 0 1-.4477 1-1s-.4477-1-1-1-1 .4477-1 1 .4477 1 1 1z"/><path d="m61 98c.5523 0 1-.4477 1-1s-.4477-1-1-1-1 .4477-1 1 .4477 1 1 1z"/><path d="m49 98c.5523 0 1-.4477 1-1s-.4477-1-1-1-1 .4477-1 1 .4477 1 1 1z"/><path d="m37 98c.5523 0 1-.4477 1-1s-.4477-1-1-1-1 .4477-1 1 .4477 1 1 1z"/><path d="m25 98c.5523 0 1-.4477 1-1s-.4477-1-1-1-1 .4477-1 1 .4477 1 1 1z"/><path d="m13 98c.5523 0 1-.4477 1-1s-.4477-1-1-1-1 .4477-1 1 .4477 1 1 1z"/><path d="m1 98c.55228 0 1-.4477 1-1s-.44772-1-1-1c-.552285 0-1 .4477-1 1s.447715 1 1 1z"/><path d="m349 86c.552 0 1-.4477 1-1s-.448-1-1-1-1 .4477-1 1 .448 1 1 1z"/><path d="m337 86c.552 0 1-.4477 1-1s-.448-1-1-1-1 .4477-1 1 .448 1 1 1z"/><path d="m325 86c.552 0 1-.4477 1-1s-.448-1-1-1-1 .4477-1 1 .448 1 1 1z"/><path d="m313 86c.552 0 1-.4477 1-1s-.448-1-1-1-1 .4477-1 1 .448 1 1 1z"/><path d="m301 86c.552 0 1-.4477 1-1s-.448-1-1-1-1 .4477-1 1 .448 1 1 1z"/><path d="m289 86c.552 0 1-.4477 1-1s-.448-1-1-1-1 .4477-1 1 .448 1 1 1z"/><path d="m277 86c.552 0 1-.4477 1-1s-.448-1-1-1-1 .4477-1 1 .448 1 1 1z"/><path d="m265 86c.552 0 1-.4477 1-1s-.448-1-1-1-1 .4477-1 1 .448 1 1 1z"/><path d="m253 86c.552 0 1-.4477 1-1s-.448-1-1-1-1 .4477-1 1 .448 1 1 1z"/><path d="m241 86c.552 0 1-.4477 1-1s-.448-1-1-1-1 .4477-1 1 .448 1 1 1z"/><path d="m229 86c.552 0 1-.4477 1-1s-.448-1-1-1-1 .4477-1 1 .448 1 1 1z"/><path d="m217 86c.552 0 1-.4477 1-1s-.448-1-1-1-1 .4477-1 1 .448 1 1 1z"/><path d="m205 86c.552 0 1-.4477 1-1s-.448-1-1-1-1 .4477-1 1 .448 1 1 1z"/><path d="m193 86c.552 0 1-.4477 1-1s-.448-1-1-1-1 .4477-1 1 .448 1 1 1z"/><path d="m181 86c.552 0 1-.4477 1-1s-.448-1-1-1-1 .4477-1 1 .448 1 1 1z"/><path d="m169 86c.552 0 1-.4477 1-1s-.448-1-1-1-1 .4477-1 1 .448 1 1 1z"/><path d="m157 86c.552 0 1-.4477 1-1s-.448-1-1-1-1 .4477-1 1 .448 1 1 1z"/><path d="m145 86c.552 0 1-.4477 1-1s-.448-1-1-1-1 .4477-1 1 .448 1 1 1z"/><path d="m133 86c.552 0 1-.4477 1-1s-.448-1-1-1-1 .4477-1 1 .448 1 1 1z"/><path d="m121 86c.552 0 1-.4477 1-1s-.448-1-1-1-1 .4477-1 1 .448 1 1 1z"/><path d="m109 86c.552 0 1-.4477 1-1s-.448-1-1-1-1 .4477-1 1 .448 1 1 1z"/><path d="m97 86c.5523 0 1-.4477 1-1s-.4477-1-1-1-1 .4477-1 1 .4477 1 1 1z"/><path d="m85 86c.5523 0 1-.4477 1-1s-.4477-1-1-1-1 .4477-1 1 .4477 1 1 1z"/><path d="m73 86c.5523 0 1-.4477 1-1s-.4477-1-1-1-1 .4477-1 1 .4477 1 1 1z"/><path d="m61 86c.5523 0 1-.4477 1-1s-.4477-1-1-1-1 .4477-1 1 .4477 1 1 1z"/><path d="m49 86c.5523 0 1-.4477 1-1s-.4477-1-1-1-1 .4477-1 1 .4477 1 1 1z"/><path d="m37 86c.5523 0 1-.4477 1-1s-.4477-1-1-1-1 .4477-1 1 .4477 1 1 1z"/><path d="m25 86c.5523 0 1-.4477 1-1s-.4477-1-1-1-1 .4477-1 1 .4477 1 1 1z"/><path d="m13 86c.5523 0 1-.4477 1-1s-.4477-1-1-1-1 .4477-1 1 .4477 1 1 1z"/><path d="m1 86c.55228 0 1-.4477 1-1s-.44772-1-1-1c-.552285 0-1 .4477-1 1s.447715 1 1 1z"/><path d="m349 74c.552 0 1-.4477 1-1s-.448-1-1-1-1 .4477-1 1 .448 1 1 1z"/><path d="m337 74c.552 0 1-.4477 1-1s-.448-1-1-1-1 .4477-1 1 .448 1 1 1z"/><path d="m325 74c.552 0 1-.4477 1-1s-.448-1-1-1-1 .4477-1 1 .448 1 1 1z"/><path d="m313 74c.552 0 1-.4477 1-1s-.448-1-1-1-1 .4477-1 1 .448 1 1 1z"/><path d="m301 74c.552 0 1-.4477 1-1s-.448-1-1-1-1 .4477-1 1 .448 1 1 1z"/><path d="m289 74c.552 0 1-.4477 1-1s-.448-1-1-1-1 .4477-1 1 .448 1 1 1z"/><path d="m277 74c.552 0 1-.4477 1-1s-.448-1-1-1-1 .4477-1 1 .448 1 1 1z"/><path d="m265 74c.552 0 1-.4477 1-1s-.448-1-1-1-1 .4477-1 1 .448 1 1 1z"/><path d="m253 74c.552 0 1-.4477 1-1s-.448-1-1-1-1 .4477-1 1 .448 1 1 1z"/><path d="m241 74c.552 0 1-.4477 1-1s-.448-1-1-1-1 .4477-1 1 .448 1 1 1z"/><path d="m229 74c.552 0 1-.4477 1-1s-.448-1-1-1-1 .4477-1 1 .448 1 1 1z"/><path d="m217 74c.552 0 1-.4477 1-1s-.448-1-1-1-1 .4477-1 1 .448 1 1 1z"/><path d="m205 74c.552 0 1-.4477 1-1s-.448-1-1-1-1 .4477-1 1 .448 1 1 1z"/><path d="m193 74c.552 0 1-.4477 1-1s-.448-1-1-1-1 .4477-1 1 .448 1 1 1z"/><path d="m181 74c.552 0 1-.4477 1-1s-.448-1-1-1-1 .4477-1 1 .448 1 1 1z"/><path d="m169 74c.552 0 1-.4477 1-1s-.448-1-1-1-1 .4477-1 1 .448 1 1 1z"/><path d="m157 74c.552 0 1-.4477 1-1s-.448-1-1-1-1 .4477-1 1 .448 1 1 1z"/><path d="m145 74c.552 0 1-.4477 1-1s-.448-1-1-1-1 .4477-1 1 .448 1 1 1z"/><path d="m133 74c.552 0 1-.4477 1-1s-.448-1-1-1-1 .4477-1 1 .448 1 1 1z"/><path d="m121 74c.552 0 1-.4477 1-1s-.448-1-1-1-1 .4477-1 1 .448 1 1 1z"/><path d="m109 74c.552 0 1-.4477 1-1s-.448-1-1-1-1 .4477-1 1 .448 1 1 1z"/><path d="m97 74c.5523 0 1-.4477 1-1s-.4477-1-1-1-1 .4477-1 1 .4477 1 1 1z"/><path d="m85 74c.5523 0 1-.4477 1-1s-.4477-1-1-1-1 .4477-1 1 .4477 1 1 1z"/><path d="m73 74c.5523 0 1-.4477 1-1s-.4477-1-1-1-1 .4477-1 1 .4477 1 1 1z"/><path d="m61 74c.5523 0 1-.4477 1-1s-.4477-1-1-1-1 .4477-1 1 .4477 1 1 1z"/><path d="m49 74c.5523 0 1-.4477 1-1s-.4477-1-1-1-1 .4477-1 1 .4477 1 1 1z"/><path d="m37 74c.5523 0 1-.4477 1-1s-.4477-1-1-1-1 .4477-1 1 .4477 1 1 1z"/><path d="m25 74c.5523 0 1-.4477 1-1s-.4477-1-1-1-1 .4477-1 1 .4477 1 1 1z"/><path d="m13 74c.5523 0 1-.4477 1-1s-.4477-1-1-1-1 .4477-1 1 .4477 1 1 1z"/><path d="m1 74c.55228 0 1-.4477 1-1s-.44772-1-1-1c-.552285 0-1 .4477-1 1s.447715 1 1 1z"/><path d="m349 62c.552 0 1-.4477 1-1s-.448-1-1-1-1 .4477-1 1 .448 1 1 1z"/><path d="m337 62c.552 0 1-.4477 1-1s-.448-1-1-1-1 .4477-1 1 .448 1 1 1z"/><path d="m325 62c.552 0 1-.4477 1-1s-.448-1-1-1-1 .4477-1 1 .448 1 1 1z"/><path d="m313 62c.552 0 1-.4477 1-1s-.448-1-1-1-1 .4477-1 1 .448 1 1 1z"/><path d="m301 62c.552 0 1-.4477 1-1s-.448-1-1-1-1 .4477-1 1 .448 1 1 1z"/><path d="m289 62c.552 0 1-.4477 1-1s-.448-1-1-1-1 .4477-1 1 .448 1 1 1z"/><path d="m277 62c.552 0 1-.4477 1-1s-.448-1-1-1-1 .4477-1 1 .448 1 1 1z"/><path d="m265 62c.552 0 1-.4477 1-1s-.448-1-1-1-1 .4477-1 1 .448 1 1 1z"/><path d="m253 62c.552 0 1-.4477 1-1s-.448-1-1-1-1 .4477-1 1 .448 1 1 1z"/><path d="m241 62c.552 0 1-.4477 1-1s-.448-1-1-1-1 .4477-1 1 .448 1 1 1z"/><path d="m229 62c.552 0 1-.4477 1-1s-.448-1-1-1-1 .4477-1 1 .448 1 1 1z"/><path d="m217 62c.552 0 1-.4477 1-1s-.448-1-1-1-1 .4477-1 1 .448 1 1 1z"/><path d="m205 62c.552 0 1-.4477 1-1s-.448-1-1-1-1 .4477-1 1 .448 1 1 1z"/><path d="m193 62c.552 0 1-.4477 1-1s-.448-1-1-1-1 .4477-1 1 .448 1 1 1z"/><path d="m181 62c.552 0 1-.4477 1-1s-.448-1-1-1-1 .4477-1 1 .448 1 1 1z"/><path d="m169 62c.552 0 1-.4477 1-1s-.448-1-1-1-1 .4477-1 1 .448 1 1 1z"/><path d="m157 62c.552 0 1-.4477 1-1s-.448-1-1-1-1 .4477-1 1 .448 1 1 1z"/><path d="m145 62c.552 0 1-.4477 1-1s-.448-1-1-1-1 .4477-1 1 .448 1 1 1z"/><path d="m133 62c.552 0 1-.4477 1-1s-.448-1-1-1-1 .4477-1 1 .448 1 1 1z"/><path d="m121 62c.552 0 1-.4477 1-1s-.448-1-1-1-1 .4477-1 1 .448 1 1 1z"/><path d="m109 62c.552 0 1-.4477 1-1s-.448-1-1-1-1 .4477-1 1 .448 1 1 1z"/><path d="m97 62c.5523 0 1-.4477 1-1s-.4477-1-1-1-1 .4477-1 1 .4477 1 1 1z"/><path d="m85 62c.5523 0 1-.4477 1-1s-.4477-1-1-1-1 .4477-1 1 .4477 1 1 1z"/><path d="m73 62c.5523 0 1-.4477 1-1s-.4477-1-1-1-1 .4477-1 1 .4477 1 1 1z"/><path d="m61 62c.5523 0 1-.4477 1-1s-.4477-1-1-1-1 .4477-1 1 .4477 1 1 1z"/><path d="m49 62c.5523 0 1-.4477 1-1s-.4477-1-1-1-1 .4477-1 1 .4477 1 1 1z"/><path d="m37 62c.5523 0 1-.4477 1-1s-.4477-1-1-1-1 .4477-1 1 .4477 1 1 1z"/><path d="m25 62c.5523 0 1-.4477 1-1s-.4477-1-1-1-1 .4477-1 1 .4477 1 1 1z"/><path d="m13 62c.5523 0 1-.4477 1-1s-.4477-1-1-1-1 .4477-1 1 .4477 1 1 1z"/><path d="m1 62c.55228 0 1-.4477 1-1s-.44772-1-1-1c-.552285 0-1 .4477-1 1s.447715 1 1 1z"/><path d="m349 50c.552 0 1-.4477 1-1s-.448-1-1-1-1 .4477-1 1 .448 1 1 1z"/><path d="m337 50c.552 0 1-.4477 1-1s-.448-1-1-1-1 .4477-1 1 .448 1 1 1z"/><path d="m325 50c.552 0 1-.4477 1-1s-.448-1-1-1-1 .4477-1 1 .448 1 1 1z"/><path d="m313 50c.552 0 1-.4477 1-1s-.448-1-1-1-1 .4477-1 1 .448 1 1 1z"/><path d="m301 50c.552 0 1-.4477 1-1s-.448-1-1-1-1 .4477-1 1 .448 1 1 1z"/><path d="m289 50c.552 0 1-.4477 1-1s-.448-1-1-1-1 .4477-1 1 .448 1 1 1z"/><path d="m277 50c.552 0 1-.4477 1-1s-.448-1-1-1-1 .4477-1 1 .448 1 1 1z"/><path d="m265 50c.552 0 1-.4477 1-1s-.448-1-1-1-1 .4477-1 1 .448 1 1 1z"/><path d="m253 50c.552 0 1-.4477 1-1s-.448-1-1-1-1 .4477-1 1 .448 1 1 1z"/><path d="m241 50c.552 0 1-.4477 1-1s-.448-1-1-1-1 .4477-1 1 .448 1 1 1z"/><path d="m229 50c.552 0 1-.4477 1-1s-.448-1-1-1-1 .4477-1 1 .448 1 1 1z"/><path d="m217 50c.552 0 1-.4477 1-1s-.448-1-1-1-1 .4477-1 1 .448 1 1 1z"/><path d="m205 50c.552 0 1-.4477 1-1s-.448-1-1-1-1 .4477-1 1 .448 1 1 1z"/><path d="m193 50c.552 0 1-.4477 1-1s-.448-1-1-1-1 .4477-1 1 .448 1 1 1z"/><path d="m181 50c.552 0 1-.4477 1-1s-.448-1-1-1-1 .4477-1 1 .448 1 1 1z"/><path d="m169 50c.552 0 1-.4477 1-1s-.448-1-1-1-1 .4477-1 1 .448 1 1 1z"/><path d="m157 50c.552 0 1-.4477 1-1s-.448-1-1-1-1 .4477-1 1 .448 1 1 1z"/><path d="m145 50c.552 0 1-.4477 1-1s-.448-1-1-1-1 .4477-1 1 .448 1 1 1z"/><path d="m133 50c.552 0 1-.4477 1-1s-.448-1-1-1-1 .4477-1 1 .448 1 1 1z"/><path d="m121 50c.552 0 1-.4477 1-1s-.448-1-1-1-1 .4477-1 1 .448 1 1 1z"/><path d="m109 50c.552 0 1-.4477 1-1s-.448-1-1-1-1 .4477-1 1 .448 1 1 1z"/><path d="m97 50c.5523 0 1-.4477 1-1s-.4477-1-1-1-1 .4477-1 1 .4477 1 1 1z"/><path d="m85 50c.5523 0 1-.4477 1-1s-.4477-1-1-1-1 .4477-1 1 .4477 1 1 1z"/><path d="m73 50c.5523 0 1-.4477 1-1s-.4477-1-1-1-1 .4477-1 1 .4477 1 1 1z"/><path d="m61 50c.5523 0 1-.4477 1-1s-.4477-1-1-1-1 .4477-1 1 .4477 1 1 1z"/><path d="m49 50c.5523 0 1-.4477 1-1s-.4477-1-1-1-1 .4477-1 1 .4477 1 1 1z"/><path d="m37 50c.5523 0 1-.4477 1-1s-.4477-1-1-1-1 .4477-1 1 .4477 1 1 1z"/><path d="m25 50c.5523 0 1-.4477 1-1s-.4477-1-1-1-1 .4477-1 1 .4477 1 1 1z"/><path d="m13 50c.5523 0 1-.4477 1-1s-.4477-1-1-1-1 .4477-1 1 .4477 1 1 1z"/><path d="m1 50c.55228 0 1-.4477 1-1s-.44772-1-1-1c-.552285 0-1 .4477-1 1s.447715 1 1 1z"/><path d="m349 38c.552 0 1-.4477 1-1s-.448-1-1-1-1 .4477-1 1 .448 1 1 1z"/><path d="m337 38c.552 0 1-.4477 1-1s-.448-1-1-1-1 .4477-1 1 .448 1 1 1z"/><path d="m325 38c.552 0 1-.4477 1-1s-.448-1-1-1-1 .4477-1 1 .448 1 1 1z"/><path d="m313 38c.552 0 1-.4477 1-1s-.448-1-1-1-1 .4477-1 1 .448 1 1 1z"/><path d="m301 38c.552 0 1-.4477 1-1s-.448-1-1-1-1 .4477-1 1 .448 1 1 1z"/><path d="m289 38c.552 0 1-.4477 1-1s-.448-1-1-1-1 .4477-1 1 .448 1 1 1z"/><path d="m277 38c.552 0 1-.4477 1-1s-.448-1-1-1-1 .4477-1 1 .448 1 1 1z"/><path d="m265 38c.552 0 1-.4477 1-1s-.448-1-1-1-1 .4477-1 1 .448 1 1 1z"/><path d="m253 38c.552 0 1-.4477 1-1s-.448-1-1-1-1 .4477-1 1 .448 1 1 1z"/><path d="m241 38c.552 0 1-.4477 1-1s-.448-1-1-1-1 .4477-1 1 .448 1 1 1z"/><path d="m229 38c.552 0 1-.4477 1-1s-.448-1-1-1-1 .4477-1 1 .448 1 1 1z"/><path d="m217 38c.552 0 1-.4477 1-1s-.448-1-1-1-1 .4477-1 1 .448 1 1 1z"/><path d="m205 38c.552 0 1-.4477 1-1s-.448-1-1-1-1 .4477-1 1 .448 1 1 1z"/><path d="m193 38c.552 0 1-.4477 1-1s-.448-1-1-1-1 .4477-1 1 .448 1 1 1z"/><path d="m181 38c.552 0 1-.4477 1-1s-.448-1-1-1-1 .4477-1 1 .448 1 1 1z"/><path d="m169 38c.552 0 1-.4477 1-1s-.448-1-1-1-1 .4477-1 1 .448 1 1 1z"/><path d="m157 38c.552 0 1-.4477 1-1s-.448-1-1-1-1 .4477-1 1 .448 1 1 1z"/><path d="m145 38c.552 0 1-.4477 1-1s-.448-1-1-1-1 .4477-1 1 .448 1 1 1z"/><path d="m133 38c.552 0 1-.4477 1-1s-.448-1-1-1-1 .4477-1 1 .448 1 1 1z"/><path d="m121 38c.552 0 1-.4477 1-1s-.448-1-1-1-1 .4477-1 1 .448 1 1 1z"/><path d="m109 38c.552 0 1-.4477 1-1s-.448-1-1-1-1 .4477-1 1 .448 1 1 1z"/><path d="m97 38c.5523 0 1-.4477 1-1s-.4477-1-1-1-1 .4477-1 1 .4477 1 1 1z"/><path d="m85 38c.5523 0 1-.4477 1-1s-.4477-1-1-1-1 .4477-1 1 .4477 1 1 1z"/><path d="m73 38c.5523 0 1-.4477 1-1s-.4477-1-1-1-1 .4477-1 1 .4477 1 1 1z"/><path d="m61 38c.5523 0 1-.4477 1-1s-.4477-1-1-1-1 .4477-1 1 .4477 1 1 1z"/><path d="m49 38c.5523 0 1-.4477 1-1s-.4477-1-1-1-1 .4477-1 1 .4477 1 1 1z"/><path d="m37 38c.5523 0 1-.4477 1-1s-.4477-1-1-1-1 .4477-1 1 .4477 1 1 1z"/><path d="m25 38c.5523 0 1-.4477 1-1s-.4477-1-1-1-1 .4477-1 1 .4477 1 1 1z"/><path d="m13 38c.5523 0 1-.4477 1-1s-.4477-1-1-1-1 .4477-1 1 .4477 1 1 1z"/><path d="m1 38c.55228 0 1-.4477 1-1s-.44772-1-1-1c-.552285 0-1 .4477-1 1s.447715 1 1 1z"/><path d="m349 26c.552 0 1-.4477 1-1s-.448-1-1-1-1 .4477-1 1 .448 1 1 1z"/><path d="m337 26c.552 0 1-.4477 1-1s-.448-1-1-1-1 .4477-1 1 .448 1 1 1z"/><path d="m325 26c.552 0 1-.4477 1-1s-.448-1-1-1-1 .4477-1 1 .448 1 1 1z"/><path d="m313 26c.552 0 1-.4477 1-1s-.448-1-1-1-1 .4477-1 1 .448 1 1 1z"/><path d="m301 26c.552 0 1-.4477 1-1s-.448-1-1-1-1 .4477-1 1 .448 1 1 1z"/><path d="m289 26c.552 0 1-.4477 1-1s-.448-1-1-1-1 .4477-1 1 .448 1 1 1z"/><path d="m277 26c.552 0 1-.4477 1-1s-.448-1-1-1-1 .4477-1 1 .448 1 1 1z"/><path d="m265 26c.552 0 1-.4477 1-1s-.448-1-1-1-1 .4477-1 1 .448 1 1 1z"/><path d="m253 26c.552 0 1-.4477 1-1s-.448-1-1-1-1 .4477-1 1 .448 1 1 1z"/><path d="m241 26c.552 0 1-.4477 1-1s-.448-1-1-1-1 .4477-1 1 .448 1 1 1z"/><path d="m229 26c.552 0 1-.4477 1-1s-.448-1-1-1-1 .4477-1 1 .448 1 1 1z"/><path d="m217 26c.552 0 1-.4477 1-1s-.448-1-1-1-1 .4477-1 1 .448 1 1 1z"/><path d="m205 26c.552 0 1-.4477 1-1s-.448-1-1-1-1 .4477-1 1 .448 1 1 1z"/><path d="m193 26c.552 0 1-.4477 1-1s-.448-1-1-1-1 .4477-1 1 .448 1 1 1z"/><path d="m181 26c.552 0 1-.4477 1-1s-.448-1-1-1-1 .4477-1 1 .448 1 1 1z"/><path d="m169 26c.552 0 1-.4477 1-1s-.448-1-1-1-1 .4477-1 1 .448 1 1 1z"/><path d="m157 26c.552 0 1-.4477 1-1s-.448-1-1-1-1 .4477-1 1 .448 1 1 1z"/><path d="m145 26c.552 0 1-.4477 1-1s-.448-1-1-1-1 .4477-1 1 .448 1 1 1z"/><path d="m133 26c.552 0 1-.4477 1-1s-.448-1-1-1-1 .4477-1 1 .448 1 1 1z"/><path d="m121 26c.552 0 1-.4477 1-1s-.448-1-1-1-1 .4477-1 1 .448 1 1 1z"/><path d="m109 26c.552 0 1-.4477 1-1s-.448-1-1-1-1 .4477-1 1 .448 1 1 1z"/><path d="m97 26c.5523 0 1-.4477 1-1s-.4477-1-1-1-1 .4477-1 1 .4477 1 1 1z"/><path d="m85 26c.5523 0 1-.4477 1-1s-.4477-1-1-1-1 .4477-1 1 .4477 1 1 1z"/><path d="m73 26c.5523 0 1-.4477 1-1s-.4477-1-1-1-1 .4477-1 1 .4477 1 1 1z"/><path d="m61 26c.5523 0 1-.4477 1-1s-.4477-1-1-1-1 .4477-1 1 .4477 1 1 1z"/><path d="m49 26c.5523 0 1-.4477 1-1s-.4477-1-1-1-1 .4477-1 1 .4477 1 1 1z"/><path d="m37 26c.5523 0 1-.4477 1-1s-.4477-1-1-1-1 .4477-1 1 .4477 1 1 1z"/><path d="m25 26c.5523 0 1-.4477 1-1s-.4477-1-1-1-1 .4477-1 1 .4477 1 1 1z"/><path d="m13 26c.5523 0 1-.4477 1-1s-.4477-1-1-1-1 .4477-1 1 .4477 1 1 1z"/><path d="m1 26c.55228 0 1-.4477 1-1s-.44772-1-1-1c-.552285 0-1 .4477-1 1s.447715 1 1 1z"/><path d="m349 14c.552 0 1-.4477 1-1s-.448-1-1-1-1 .4477-1 1 .448 1 1 1z"/><path d="m337 14c.552 0 1-.4477 1-1s-.448-1-1-1-1 .4477-1 1 .448 1 1 1z"/><path d="m325 14c.552 0 1-.4477 1-1s-.448-1-1-1-1 .4477-1 1 .448 1 1 1z"/><path d="m313 14c.552 0 1-.4477 1-1s-.448-1-1-1-1 .4477-1 1 .448 1 1 1z"/><path d="m301 14c.552 0 1-.4477 1-1s-.448-1-1-1-1 .4477-1 1 .448 1 1 1z"/><path d="m289 14c.552 0 1-.4477 1-1s-.448-1-1-1-1 .4477-1 1 .448 1 1 1z"/><path d="m277 14c.552 0 1-.4477 1-1s-.448-1-1-1-1 .4477-1 1 .448 1 1 1z"/><path d="m265 14c.552 0 1-.4477 1-1s-.448-1-1-1-1 .4477-1 1 .448 1 1 1z"/><path d="m253 14c.552 0 1-.4477 1-1s-.448-1-1-1-1 .4477-1 1 .448 1 1 1z"/><path d="m241 14c.552 0 1-.4477 1-1s-.448-1-1-1-1 .4477-1 1 .448 1 1 1z"/><path d="m229 14c.552 0 1-.4477 1-1s-.448-1-1-1-1 .4477-1 1 .448 1 1 1z"/><path d="m217 14c.552 0 1-.4477 1-1s-.448-1-1-1-1 .4477-1 1 .448 1 1 1z"/><path d="m205 14c.552 0 1-.4477 1-1s-.448-1-1-1-1 .4477-1 1 .448 1 1 1z"/><path d="m193 14c.552 0 1-.4477 1-1s-.448-1-1-1-1 .4477-1 1 .448 1 1 1z"/><path d="m181 14c.552 0 1-.4477 1-1s-.448-1-1-1-1 .4477-1 1 .448 1 1 1z"/><path d="m169 14c.552 0 1-.4477 1-1s-.448-1-1-1-1 .4477-1 1 .448 1 1 1z"/><path d="m157 14c.552 0 1-.4477 1-1s-.448-1-1-1-1 .4477-1 1 .448 1 1 1z"/><path d="m145 14c.552 0 1-.4477 1-1s-.448-1-1-1-1 .4477-1 1 .448 1 1 1z"/><path d="m133 14c.552 0 1-.4477 1-1s-.448-1-1-1-1 .4477-1 1 .448 1 1 1z"/><path d="m121 14c.552 0 1-.4477 1-1s-.448-1-1-1-1 .4477-1 1 .448 1 1 1z"/><path d="m109 14c.552 0 1-.4477 1-1s-.448-1-1-1-1 .4477-1 1 .448 1 1 1z"/><path d="m97 14c.5523 0 1-.4477 1-1s-.4477-1-1-1-1 .4477-1 1 .4477 1 1 1z"/><path d="m85 14c.5523 0 1-.4477 1-1s-.4477-1-1-1-1 .4477-1 1 .4477 1 1 1z"/><path d="m73 14c.5523 0 1-.4477 1-1s-.4477-1-1-1-1 .4477-1 1 .4477 1 1 1z"/><path d="m61 14c.5523 0 1-.4477 1-1s-.4477-1-1-1-1 .4477-1 1 .4477 1 1 1z"/><path d="m49 14c.5523 0 1-.4477 1-1s-.4477-1-1-1-1 .4477-1 1 .4477 1 1 1z"/><path d="m37 14c.5523 0 1-.4477 1-1s-.4477-1-1-1-1 .4477-1 1 .4477 1 1 1z"/><path d="m25 14c.5523 0 1-.4477 1-1s-.4477-1-1-1-1 .4477-1 1 .4477 1 1 1z"/><path d="m13 14c.5523 0 1-.4477 1-1s-.4477-1-1-1-1 .4477-1 1 .4477 1 1 1z"/><path d="m1 14c.55228 0 1-.4477 1-1s-.44772-1-1-1c-.552285 0-1 .4477-1 1s.447715 1 1 1z"/><path d="m349 2c.552 0 1-.44772 1-1 0-.552285-.448-1-1-1s-1 .447715-1 1c0 .55228.448 1 1 1z"/><path d="m337 2c.552 0 1-.44772 1-1 0-.552285-.448-1-1-1s-1 .447715-1 1c0 .55228.448 1 1 1z"/><path d="m325 2c.552 0 1-.44772 1-1 0-.552285-.448-1-1-1s-1 .447715-1 1c0 .55228.448 1 1 1z"/><path d="m313 2c.552 0 1-.44772 1-1 0-.552285-.448-1-1-1s-1 .447715-1 1c0 .55228.448 1 1 1z"/><path d="m301 2c.552 0 1-.44772 1-1 0-.552285-.448-1-1-1s-1 .447715-1 1c0 .55228.448 1 1 1z"/><path d="m289 2c.552 0 1-.44772 1-1 0-.552285-.448-1-1-1s-1 .447715-1 1c0 .55228.448 1 1 1z"/><path d="m277 2c.552 0 1-.44772 1-1 0-.552285-.448-1-1-1s-1 .447715-1 1c0 .55228.448 1 1 1z"/><path d="m265 2c.552 0 1-.44772 1-1 0-.552285-.448-1-1-1s-1 .447715-1 1c0 .55228.448 1 1 1z"/><path d="m253 2c.552 0 1-.44772 1-1 0-.552285-.448-1-1-1s-1 .447715-1 1c0 .55228.448 1 1 1z"/><path d="m241 2c.552 0 1-.44772 1-1 0-.552285-.448-1-1-1s-1 .447715-1 1c0 .55228.448 1 1 1z"/><path d="m229 2c.552 0 1-.44772 1-1 0-.552285-.448-1-1-1s-1 .447715-1 1c0 .55228.448 1 1 1z"/><path d="m217 2c.552 0 1-.44772 1-1 0-.552285-.448-1-1-1s-1 .447715-1 1c0 .55228.448 1 1 1z"/><path d="m205 2c.552 0 1-.44772 1-1 0-.552285-.448-1-1-1s-1 .447715-1 1c0 .55228.448 1 1 1z"/><path d="m193 2c.552 0 1-.44772 1-1 0-.552285-.448-1-1-1s-1 .447715-1 1c0 .55228.448 1 1 1z"/><path d="m181 2c.552 0 1-.44772 1-1 0-.552285-.448-1-1-1s-1 .447715-1 1c0 .55228.448 1 1 1z"/><path d="m169 2c.552 0 1-.44772 1-1 0-.552285-.448-1-1-1s-1 .447715-1 1c0 .55228.448 1 1 1z"/><path d="m157 2c.552 0 1-.44772 1-1 0-.552285-.448-1-1-1s-1 .447715-1 1c0 .55228.448 1 1 1z"/><path d="m145 2c.552 0 1-.44772 1-1 0-.552285-.448-1-1-1s-1 .447715-1 1c0 .55228.448 1 1 1z"/><path d="m133 2c.552 0 1-.44772 1-1 0-.552285-.448-1-1-1s-1 .447715-1 1c0 .55228.448 1 1 1z"/><path d="m121 2c.552 0 1-.44772 1-1 0-.552285-.448-1-1-1s-1 .447715-1 1c0 .55228.448 1 1 1z"/><path d="m109 2c.552 0 1-.44772 1-1 0-.552285-.448-1-1-1s-1 .447715-1 1c0 .55228.448 1 1 1z"/><path d="m97 2c.5523 0 1-.44772 1-1 0-.552285-.4477-1-1-1s-1 .447715-1 1c0 .55228.4477 1 1 1z"/><path d="m85 2c.5523 0 1-.44772 1-1 0-.552285-.4477-1-1-1s-1 .447715-1 1c0 .55228.4477 1 1 1z"/><path d="m73 2c.5523 0 1-.44772 1-1 0-.552285-.4477-1-1-1s-1 .447715-1 1c0 .55228.4477 1 1 1z"/><path d="m61 2c.5523 0 1-.44772 1-1 0-.552285-.4477-1-1-1s-1 .447715-1 1c0 .55228.4477 1 1 1z"/><path d="m49 2c.5523 0 1-.44772 1-1 0-.552285-.4477-1-1-1s-1 .447715-1 1c0 .55228.4477 1 1 1z"/><path d="m37 2c.5523 0 1-.44772 1-1 0-.552285-.4477-1-1-1s-1 .447715-1 1c0 .55228.4477 1 1 1z"/><path d="m25 2c.5523 0 1-.44772 1-1 0-.552285-.4477-1-1-1s-1 .447715-1 1c0 .55228.4477 1 1 1z"/><path d="m13 2c.5523 0 1-.44772 1-1 0-.552285-.4477-1-1-1s-1 .447715-1 1c0 .55228.4477 1 1 1z"/><path d="m1 2c.55228 0 1-.44772 1-1 0-.552285-.44772-1-1-1-.552285 0-1 .447715-1 1 0 .55228.447715 1 1 1z"/></g></svg>