<?xml version="1.0" standalone="no"?><svg xmlns="http://www.w3.org/2000/svg" viewBox="0 0 1440 320"><path fill="#6c63ff" fill-opacity="1" d="M0,64L30,80C60,96,120,128,180,160C240,192,300,224,360,245.3C420,267,480,277,540,250.7C600,224,660,160,720,165.3C780,171,840,245,900,229.3C960,213,1020,107,1080,74.7C1140,43,1200,85,1260,117.3C1320,149,1380,171,1410,181.3L1440,192L1440,0L1410,0C1380,0,1320,0,1260,0C1200,0,1140,0,1080,0C1020,0,960,0,900,0C840,0,780,0,720,0C660,0,600,0,540,0C480,0,420,0,360,0C300,0,240,0,180,0C120,0,60,0,30,0L0,0Z"></path></svg>