<?xml version="1.0" standalone="no"?>
<svg xmlns:xlink="http://www.w3.org/1999/xlink" id="wave" style="transform:rotate(0deg); transition: 0.3s" viewBox="0 0 1440 300" version="1.1" xmlns="http://www.w3.org/2000/svg"><defs><linearGradient id="sw-gradient-0" x1="0" x2="0" y1="1" y2="0"><stop stop-color="rgba(108, 99, 255, 1)" offset="0%"/><stop stop-color="rgba(175.977, 175.655, 181.232, 1)" offset="100%"/></linearGradient></defs><path style="transform:translate(0, 0px); opacity:1" fill="url(#sw-gradient-0)" d="M0,60L30,70C60,80,120,100,180,95C240,90,300,60,360,40C420,20,480,10,540,40C600,70,660,140,720,185C780,230,840,250,900,245C960,240,1020,210,1080,190C1140,170,1200,160,1260,170C1320,180,1380,210,1440,220C1500,230,1560,220,1620,220C1680,220,1740,230,1800,235C1860,240,1920,240,1980,215C2040,190,2100,140,2160,140C2220,140,2280,190,2340,190C2400,190,2460,140,2520,125C2580,110,2640,130,2700,115C2760,100,2820,50,2880,55C2940,60,3000,120,3060,135C3120,150,3180,120,3240,105C3300,90,3360,90,3420,115C3480,140,3540,190,3600,175C3660,160,3720,80,3780,85C3840,90,3900,180,3960,215C4020,250,4080,230,4140,190C4200,150,4260,90,4290,60L4320,30L4320,300L4290,300C4260,300,4200,300,4140,300C4080,300,4020,300,3960,300C3900,300,3840,300,3780,300C3720,300,3660,300,3600,300C3540,300,3480,300,3420,300C3360,300,3300,300,3240,300C3180,300,3120,300,3060,300C3000,300,2940,300,2880,300C2820,300,2760,300,2700,300C2640,300,2580,300,2520,300C2460,300,2400,300,2340,300C2280,300,2220,300,2160,300C2100,300,2040,300,1980,300C1920,300,1860,300,1800,300C1740,300,1680,300,1620,300C1560,300,1500,300,1440,300C1380,300,1320,300,1260,300C1200,300,1140,300,1080,300C1020,300,960,300,900,300C840,300,780,300,720,300C660,300,600,300,540,300C480,300,420,300,360,300C300,300,240,300,180,300C120,300,60,300,30,300L0,300Z"/></svg>